<svg width="139" height="50" viewBox="0 0 139 50" fill="none" xmlns="http://www.w3.org/2000/svg">
<g clip-path="url(#clip0)">
<path d="M7.51123 0.000521288C8.09391 -0.00712114 8.67167 0.107984 9.20693 0.33835C9.74219 0.568715 10.223 0.909181 10.618 1.3376C11.0307 1.75574 11.3564 2.25157 11.5763 2.7964C11.7962 3.34124 11.9058 3.92427 11.8989 4.51176C11.9093 5.08968 11.8009 5.66358 11.5806 6.19796C11.3603 6.73234 11.0326 7.21582 10.618 7.6185C10.2327 8.0232 9.76899 8.34504 9.25509 8.56432C8.74118 8.7836 8.18794 8.8957 7.62921 8.89378C7.03325 8.91146 6.43995 8.80749 5.88551 8.58823C5.33108 8.36897 4.82715 8.03901 4.40449 7.6185C3.98981 7.21582 3.66217 6.73234 3.44185 6.19796C3.22153 5.66358 3.11321 5.08968 3.12359 4.51176C3.10487 3.91434 3.20889 3.31944 3.4292 2.76382C3.64952 2.2082 3.98145 1.70367 4.40449 1.28142C4.80797 0.867814 5.2916 0.540886 5.82579 0.320642C6.35998 0.100398 6.93349 -0.00853098 7.51123 0.000521288V0.000521288Z" fill="#1C75BC"/>
<path d="M60.4944 49.6522L58.4663 49.3657H49.4775L47.5337 49.6466H47.3427C46.1629 49.6466 45.9831 49.0286 45.9831 48.6635C45.9831 48.1859 46.2472 47.6185 47.5112 47.6185C47.6273 47.6207 47.7418 47.6455 47.8483 47.6915C48.1236 47.6915 48.5225 47.7253 49.0281 47.7702C49.5337 47.8151 49.9719 47.8432 50.2191 47.8432C51.5281 47.8432 52.2921 47.4612 52.5506 46.6803C52.8427 45.8039 52.9888 43.1522 52.9888 38.8151V15.6691C52.8933 13.2477 52.5 12.6522 52.2753 12.5118C51.8647 12.3148 51.4088 12.2314 50.9551 12.2702C50.7978 12.2702 50.3539 12.2702 49.1124 12.3826L47.691 12.523C47.691 12.6298 47.6573 12.7421 47.6404 12.8769C47.6404 12.9163 47.6405 13.1691 47.5843 13.596C47.5281 14.023 47.5281 14.3826 47.5281 14.7196L47.4719 16.8151C47.4719 18.332 47.4719 19.259 47.5281 19.568V19.6972C47.5618 19.9724 47.5955 20.259 47.6292 20.4949V21.0567C47.6292 22.1354 46.9944 22.2983 46.6124 22.2983C46.3258 22.2983 45.6573 22.1859 45.6573 21.1185V21.0062L45.809 19.6803C45.8222 19.5122 45.8466 19.3452 45.882 19.1803C45.9004 18.1848 45.71 17.1965 45.3229 16.2792C44.9359 15.3619 44.3608 14.5359 43.6348 13.8545C41.992 12.4007 39.849 11.6414 37.6573 11.7365C35.6245 11.6607 33.6273 12.2854 32 13.5062C31.3029 14.0264 30.7404 14.7057 30.3592 15.4875C29.9781 16.2694 29.7894 17.131 29.809 18.0005C29.809 19.759 30.3708 20.9837 31.4663 21.7421C32.5618 22.5005 34.7697 23.0792 37.882 23.4275C41.2528 23.7702 43.7978 24.3095 45.4382 25.0286C47.882 26.0904 49.1236 28.0342 49.1236 30.8095C49.1382 32.031 48.8682 33.2392 48.3348 34.3382C47.8014 35.4371 47.0193 36.3968 46.0506 37.141C44.0337 38.7758 41.4101 39.6017 38.2416 39.6017C34.118 39.6017 30.9382 38.2309 28.7865 35.5286C28.7865 35.7253 28.8146 35.8826 28.8258 36.0005C28.8764 37.7814 28.8876 38.0174 28.8876 38.0511C28.8876 39.332 28.3258 39.6017 27.8989 39.6017C27.4719 39.6017 26.8034 39.4219 26.8034 38.1915C26.8034 38.0511 26.8034 37.8713 26.8034 37.6297C25.6798 38.9219 23.9438 39.5736 21.6629 39.5736C16.9831 39.5736 14.6067 36.2028 14.6067 29.5792V14.7028C14.6067 13.1972 14.4719 12.7477 14.3933 12.6129C14.3146 12.4781 14.1292 12.3264 13.2697 12.3264C13.0169 12.3264 10.0955 12.3657 9.2191 12.4387H9.08427V28.141C9.08427 32.5005 9.23034 35.1466 9.52247 36.0062C9.81461 36.8657 10.5449 37.1691 11.8539 37.1691H14.5056C15.764 37.1691 16.0281 37.6635 16.0281 38.0736C16.0281 38.4837 15.8596 39.0342 14.7303 39.0342H14.4944V38.9163V39.0342L12.5112 38.9219L10.1798 38.6972H5.89326L3.53371 38.8657L1.55056 39.0342H1.35955C0.174157 39.0342 0 38.4724 0 38.1241C0 37.6915 0.264045 37.1691 1.52247 37.1691H4.23034C5.53933 37.1691 6.30337 36.7927 6.56742 36.0062C6.85393 35.1354 7.00562 32.4837 7.00562 28.141V15.7196C6.91011 13.3039 6.51685 12.7084 6.28652 12.568C5.87616 12.3702 5.42008 12.2868 4.96629 12.3264C4.75843 12.3264 4.1573 12.3601 3.1236 12.4387L1.60112 12.5511H1.41011C0.185393 12.5511 0 11.9163 0 11.5342C0 11.1522 0.162921 10.523 1.24719 10.523H1.42135L3.15169 10.6915H5.85393C6.18486 10.6824 6.515 10.6543 6.8427 10.6073C7.20225 10.5623 7.50562 10.5399 7.76404 10.5286H7.97191C8.30899 10.5286 8.73034 10.5623 9.23034 10.6073C9.73034 10.6522 12.6348 10.6915 12.9326 10.6915C13.9831 10.6915 14.618 10.3994 14.8202 9.80391C14.9931 9.11004 15.0631 8.39454 15.0281 7.68031V7.39941C14.9902 6.38586 15.0391 5.37093 15.1742 4.36571C15.2005 4.14081 15.3093 3.93366 15.4795 3.78425C15.6496 3.63485 15.8691 3.55379 16.0955 3.55672C16.4326 3.55672 17 3.71402 17 4.74211V4.87132L16.7697 7.60728C16.736 8.19717 16.7191 8.91627 16.7191 9.73087C16.7191 10.1747 16.8708 10.6915 18.0843 10.6915H19.9607C20.3708 10.6915 21.0056 10.6635 21.8483 10.6073C22.691 10.5511 23.3371 10.523 23.7697 10.523C25.0056 10.523 25.1854 11.1578 25.1854 11.5342C25.1854 12.0005 24.927 12.5511 23.6742 12.5511H23.5618L21.809 12.4949C21.5 12.4949 20.8708 12.4556 19.9494 12.3826C19.118 12.3432 18.5337 12.3264 18.118 12.3264C17.2753 12.3264 16.8258 12.5118 16.7697 12.8882C16.7197 13.4917 16.7028 14.0974 16.7191 14.7028V26.5286C16.7191 30.2084 16.9438 32.8713 17.382 34.4556C18.0225 36.7421 19.4438 37.8264 21.7191 37.8264C23.5393 37.8264 24.7809 37.2646 25.5169 36.023C26.2528 34.7814 26.6404 32.6073 26.6404 29.5623V27.3432C26.6378 27.0808 26.6895 26.8207 26.7921 26.5792C26.7921 25.5005 27.427 25.3376 27.8034 25.3376C28.2921 25.3376 28.8764 25.6298 28.8764 27.023C28.8764 27.0623 28.8764 27.2533 28.8202 27.5848C28.7803 27.9166 28.7615 28.2506 28.764 28.5848C28.7247 29.1466 28.7079 29.6354 28.7079 30.1466C28.6835 31.215 28.9066 32.2745 29.3598 33.2423C29.813 34.2101 30.484 35.0599 31.3202 35.7253C33.0787 37.1635 35.3989 37.8882 38.2247 37.8882C40.8652 37.8882 43.0169 37.2646 44.6236 36.0286C45.3771 35.4806 45.9872 34.7588 46.4019 33.9245C46.8166 33.0901 47.0237 32.168 47.0056 31.2365C47.0056 29.4387 46.4438 28.1691 45.2584 27.3545C44.073 26.5399 41.8876 25.9107 38.8146 25.5399C35.0899 25.1241 32.6348 24.6522 31.3764 24.1129C30.258 23.6195 29.3255 22.7834 28.7135 21.7253C28.0671 20.679 27.7284 19.4719 27.736 18.2421C27.7243 17.1091 27.9712 15.9884 28.458 14.9652C28.9448 13.942 29.6585 13.0434 30.5449 12.3376C32.5258 10.718 35.0269 9.87166 37.5843 9.95559C39.1913 9.89904 40.7877 10.2359 42.2349 10.937C43.682 11.638 44.9359 12.682 45.8876 13.9781V12.1747C45.8876 11.7028 45.8876 10.259 46.8483 10.259C46.9743 10.256 47.0994 10.2807 47.2149 10.3311C47.3304 10.3816 47.4334 10.4567 47.5169 10.5511L49.0506 10.6522H51.0056C51.309 10.6522 51.7472 10.6522 52.3146 10.596C52.882 10.5399 53.3483 10.5399 53.6573 10.5399C53.8521 10.5211 54.0485 10.5467 54.232 10.6146C54.4155 10.6826 54.5812 10.7911 54.7168 10.9321C54.8525 11.0731 54.9544 11.243 55.0151 11.429C55.0759 11.615 55.0937 11.8123 55.0674 12.0062V15.4949C57.1798 11.832 60.4719 9.97245 64.8708 9.97245C68.5787 9.97245 71.573 11.2814 73.7584 13.8601C75.9438 16.4387 77.0337 19.9331 77.0337 24.3151C77.0337 28.8432 75.8483 32.5623 73.5056 35.3657C72.383 36.7399 70.9599 37.838 69.346 38.5753C67.732 39.3126 65.9703 39.6695 64.1966 39.6185C60.1236 39.6185 57.0618 38.068 55.0674 35.0005V38.714C55.0674 43.1073 55.2135 45.7871 55.5056 46.6747C55.7978 47.5623 56.5281 47.8657 57.8371 47.8657C58.0899 47.8657 58.4663 47.8657 58.9944 47.7927C59.5225 47.7196 59.8652 47.7196 60.118 47.7196C60.2467 47.6618 60.3871 47.6349 60.5281 47.641C61.809 47.641 62 48.2927 62 48.6859C62 49.0792 61.8202 49.6691 60.6404 49.6691L60.4944 49.6522ZM64.9888 11.7028C61.9775 11.7028 59.5562 12.7477 57.7865 14.8151C56.7938 15.9002 56.0652 17.1999 55.6573 18.6129C55.2245 20.5347 55.0357 22.5034 55.0955 24.4724C55.0582 26.2794 55.1145 28.0871 55.264 29.8882C55.4186 31.6317 56.0917 33.289 57.1966 34.6466C58.0881 35.6926 59.2032 36.5249 60.4595 37.0821C61.7159 37.6393 63.0813 37.9071 64.4551 37.8657C65.9229 37.9199 67.3828 37.6254 68.7148 37.0063C70.0469 36.3871 71.2131 35.461 72.118 34.3039C74.0168 31.9275 74.9775 28.6859 74.9775 24.6915C74.9775 20.5455 74.1011 17.2983 72.3708 15.0511C70.6404 12.8039 68.1461 11.7028 64.9607 11.7028H64.9888Z" fill="#939598"/>
<path d="M68.1854 41.5903V49.3712H66.5V41.5903H68.1854Z" fill="#1C75BC"/>
<path d="M69.0168 43.0285V41.5903H75.3932V43.0285H73.0618V49.3712H71.3483V43.0285H69.0168Z" fill="#1C75BC"/>
<path d="M80.6236 47.4555C80.7129 47.6291 80.8418 47.7793 81 47.8937C81.1701 48.0118 81.3606 48.0975 81.5618 48.1465C81.7763 48.2032 81.9973 48.2315 82.2191 48.2308C82.3827 48.228 82.5459 48.2148 82.7079 48.1915C82.877 48.1667 83.0416 48.1175 83.1966 48.0454C83.3457 47.9751 83.4764 47.8713 83.5786 47.742C83.6843 47.6038 83.738 47.4327 83.7303 47.2589C83.7344 47.1642 83.7185 47.0698 83.6837 46.9817C83.6488 46.8936 83.5958 46.8139 83.5281 46.7476C83.3759 46.603 83.1964 46.4903 83 46.4162C82.7586 46.3232 82.5108 46.2481 82.2584 46.1915L81.4213 45.9724C81.1332 45.9003 80.8499 45.8102 80.573 45.7027C80.3066 45.6067 80.0565 45.4702 79.8315 45.2982C79.6106 45.1306 79.4301 44.9156 79.3034 44.669C79.1618 44.387 79.0923 44.0743 79.1011 43.7589C79.092 43.3962 79.1792 43.0375 79.3539 42.7196C79.5217 42.4276 79.7519 42.1763 80.0281 41.9836C80.3104 41.7832 80.6262 41.6348 80.9607 41.5454C81.303 41.4519 81.6563 41.4046 82.0112 41.4049C82.4047 41.4034 82.797 41.4487 83.1798 41.5398C83.538 41.6238 83.8772 41.7744 84.1798 41.9836C84.4675 42.1845 84.7041 42.45 84.8708 42.7589C85.0455 43.1074 85.1341 43.4927 85.1292 43.8825H83.4719C83.4603 43.6868 83.4087 43.4956 83.3202 43.3207C83.2439 43.1733 83.1294 43.0491 82.9888 42.9611C82.8433 42.8726 82.6837 42.8099 82.5169 42.7757C82.3315 42.7421 82.1435 42.7252 81.9551 42.7252C81.8155 42.7246 81.6763 42.7378 81.5393 42.7645C81.406 42.7958 81.2789 42.849 81.1629 42.9218C81.0527 42.9907 80.9588 43.0827 80.8876 43.1915C80.8217 43.3121 80.7872 43.4473 80.7872 43.5847C80.7872 43.7221 80.8217 43.8574 80.8876 43.978C80.9746 44.0953 81.0936 44.1851 81.2303 44.2364C81.4584 44.3384 81.6953 44.4193 81.9382 44.478L83.1236 44.7813C83.2697 44.8151 83.4719 44.8656 83.7247 44.9443C83.9987 45.0251 84.2584 45.1484 84.4944 45.3094C84.7607 45.4822 84.9868 45.7102 85.1573 45.978C85.3534 46.3005 85.4492 46.674 85.4326 47.051C85.436 47.3936 85.365 47.7328 85.2247 48.0454C85.0859 48.3524 84.876 48.622 84.6124 48.8319C84.3104 49.069 83.965 49.2446 83.5955 49.3488C82.7282 49.5768 81.8167 49.5768 80.9494 49.3488C80.5658 49.2523 80.2037 49.0846 79.882 48.8544C79.5723 48.63 79.32 48.3355 79.1461 47.9948C78.9541 47.6081 78.8633 47.179 78.882 46.7476H80.5393C80.5073 46.9869 80.5363 47.2304 80.6236 47.4555V47.4555Z" fill="#1C75BC"/>
<path d="M87.9887 48.023C88.2438 48.2228 88.5539 48.3396 88.8774 48.3577C89.2008 48.3758 89.522 48.2942 89.7977 48.1241C89.9883 48.0112 90.1349 47.8369 90.2135 47.6297H91.573C91.4179 48.2142 91.0644 48.7266 90.573 49.0792C90.0823 49.3812 89.5142 49.5335 88.9382 49.5174C88.5276 49.5222 88.1198 49.4498 87.7359 49.3039C87.3936 49.1678 87.0849 48.9588 86.8314 48.6915C86.5829 48.4198 86.3919 48.1007 86.2696 47.7533C86.1316 47.3697 86.0631 46.9644 86.0674 46.5567C86.0657 46.1542 86.1361 45.7546 86.2753 45.3769C86.3998 45.029 86.5906 44.7084 86.8371 44.4331C87.0949 44.1656 87.4046 43.9534 87.7472 43.8095C88.1186 43.653 88.5183 43.5746 88.9213 43.5792C89.355 43.5686 89.7848 43.663 90.1741 43.8544C90.5191 44.0339 90.8188 44.2894 91.0505 44.6016C91.2842 44.9234 91.4522 45.288 91.5449 45.6747C91.648 46.0838 91.686 46.5066 91.6573 46.9275H87.5899C87.5758 47.3305 87.7188 47.7233 87.9887 48.023V48.023ZM89.7359 45.0567C89.625 44.9493 89.4925 44.8667 89.3472 44.8144C89.2019 44.7621 89.0472 44.7413 88.8932 44.7533C88.6804 44.7451 88.4686 44.7875 88.2753 44.8769C88.1242 44.9516 87.9903 45.0568 87.882 45.1859C87.79 45.3037 87.7196 45.4368 87.6741 45.5792C87.6383 45.7 87.6157 45.8243 87.6067 45.95H90.1236C90.0799 45.622 89.9456 45.3127 89.7359 45.0567V45.0567Z" fill="#1C75BC"/>
<path d="M94.1124 43.7364V44.7589C94.1877 44.5843 94.288 44.4215 94.4101 44.2757C94.5325 44.1298 94.6743 44.0013 94.8315 43.8937C94.9921 43.789 95.1659 43.7059 95.3483 43.6465C95.5303 43.5903 95.7197 43.5619 95.9101 43.5623C96.0266 43.5631 96.1422 43.5821 96.2528 43.6184V45.0566C96.1656 45.0387 96.0774 45.0256 95.9888 45.0173H95.6966C95.4495 45.0108 95.204 45.0588 94.9775 45.1578C94.7896 45.2468 94.6258 45.3798 94.5 45.5454C94.3794 45.7141 94.2935 45.9051 94.2472 46.1072C94.1942 46.3394 94.1678 46.5769 94.1685 46.8151V49.3544H92.6236V43.7364H94.1124Z" fill="#1C75BC"/>
<path d="M98.6405 49.3713L96.7079 43.7533H98.3371L99.5225 47.5679L100.708 43.7196H102.247L100.337 49.3376L98.6405 49.3713Z" fill="#1C75BC"/>
<path d="M103.017 42.8656V41.5903H104.567V42.8656H103.017ZM104.567 43.7364V49.3544H103.017V43.7364H104.567Z" fill="#1C75BC"/>
<path d="M108.472 44.7589C108.252 44.7528 108.035 44.8114 107.848 44.9274C107.682 45.0398 107.542 45.1875 107.438 45.36C107.334 45.5342 107.258 45.7238 107.213 45.9218C107.173 46.133 107.153 46.3473 107.152 46.5623C107.153 46.7697 107.174 46.9766 107.213 47.1802C107.256 47.3772 107.328 47.5667 107.427 47.742C107.526 47.9108 107.663 48.0548 107.826 48.1634C108.01 48.2753 108.223 48.3319 108.438 48.3263C108.594 48.3371 108.751 48.3151 108.898 48.2619C109.045 48.2087 109.179 48.1254 109.292 48.0173C109.504 47.7858 109.636 47.4924 109.669 47.1802H111.163C111.098 47.8326 110.787 48.4356 110.292 48.8656C109.763 49.2643 109.111 49.4632 108.449 49.4274C108.052 49.431 107.657 49.3585 107.287 49.214C106.955 49.101 106.65 48.9234 106.388 48.6915C106.142 48.4284 105.951 48.119 105.826 47.7814C105.686 47.4097 105.615 47.0155 105.618 46.6184C105.617 46.2064 105.681 45.7967 105.809 45.405C105.928 45.0461 106.119 44.7154 106.371 44.4331C106.623 44.1592 106.932 43.9428 107.275 43.7982C107.664 43.6397 108.08 43.5613 108.5 43.5679C108.825 43.5679 109.148 43.6113 109.461 43.6971C109.759 43.7805 110.04 43.9155 110.292 44.096C110.533 44.2736 110.734 44.4993 110.882 44.7589C111.043 45.0484 111.133 45.3717 111.146 45.7027H109.629C109.618 45.5636 109.579 45.4282 109.514 45.3046C109.449 45.1811 109.36 45.0719 109.252 44.9837C109.144 44.8955 109.019 44.8301 108.885 44.7915C108.751 44.7529 108.61 44.7418 108.472 44.7589Z" fill="#1C75BC"/>
<path d="M113.77 48.023C114.047 48.264 114.409 48.3853 114.775 48.36C115.061 48.3671 115.342 48.2846 115.579 48.1241C115.769 48.0112 115.916 47.8368 115.994 47.6297H117.354C117.201 48.2152 116.847 48.7283 116.354 49.0791C115.864 49.3827 115.295 49.5351 114.719 49.5173C114.309 49.5222 113.901 49.4498 113.517 49.3039C113.174 49.1678 112.866 48.9588 112.612 48.6915C112.362 48.4214 112.17 48.1018 112.051 47.7533C111.912 47.3696 111.844 46.9644 111.848 46.5567C111.844 46.1539 111.915 45.7539 112.056 45.3769C112.178 45.0277 112.369 44.7067 112.618 44.4331C112.878 44.168 113.187 43.9562 113.528 43.8095C113.9 43.6536 114.299 43.5752 114.702 43.5791C115.136 43.5679 115.566 43.6624 115.955 43.8544C116.3 44.0339 116.6 44.2894 116.831 44.6016C117.065 44.9234 117.233 45.288 117.326 45.6746C117.432 46.0833 117.47 46.5065 117.438 46.9275H113.371C113.359 47.3301 113.502 47.7221 113.77 48.023V48.023ZM115.522 45.0567C115.41 44.9503 115.276 44.8684 115.13 44.8162C114.984 44.764 114.829 44.7426 114.674 44.7533C114.463 44.7449 114.253 44.7873 114.062 44.8769C113.909 44.949 113.775 45.0547 113.669 45.1859C113.572 45.3009 113.502 45.4349 113.461 45.5791C113.423 45.6998 113.399 45.8241 113.388 45.9499H115.904C115.86 45.6232 115.728 45.3146 115.522 45.0567Z" fill="#1C75BC"/>
<path d="M125.073 41.5904C125.497 41.5796 125.919 41.6521 126.315 41.8039C126.633 41.9254 126.919 42.1175 127.152 42.3657C127.364 42.592 127.523 42.8625 127.618 43.1578C127.813 43.7585 127.813 44.4055 127.618 45.0061C127.523 45.3048 127.364 45.5791 127.152 45.8095C126.917 46.0556 126.631 46.2473 126.315 46.3713C125.919 46.5231 125.497 46.5957 125.073 46.5848H123.275V49.3938H121.556V41.5904H125.073ZM124.607 45.2533C124.795 45.2525 124.983 45.2375 125.169 45.2084C125.337 45.184 125.499 45.1267 125.646 45.0399C125.786 44.9538 125.901 44.8315 125.977 44.6859C126.07 44.4996 126.115 44.2928 126.107 44.0848C126.115 43.8785 126.071 43.6736 125.977 43.4893C125.903 43.3409 125.788 43.2164 125.646 43.1297C125.497 43.0478 125.336 42.9908 125.169 42.9612C124.982 42.934 124.795 42.9209 124.607 42.9219H123.275V45.2533H124.607Z" fill="#1C75BC"/>
<path d="M130.079 43.7364V44.7589C130.152 44.5845 130.25 44.4217 130.371 44.2757C130.495 44.1297 130.639 44.0012 130.798 43.8937C130.956 43.789 131.128 43.7059 131.309 43.6465C131.491 43.5904 131.68 43.562 131.871 43.5623C131.985 43.5637 132.099 43.5826 132.208 43.6184V45.0566C132.123 45.0387 132.036 45.0255 131.949 45.0173H131.652C131.405 45.0121 131.159 45.06 130.933 45.1578C130.745 45.2455 130.583 45.3788 130.461 45.5454C130.336 45.7124 130.248 45.9039 130.202 46.1072C130.151 46.3396 130.127 46.5771 130.129 46.8151V49.3544H128.579V43.7364H130.079Z" fill="#1C75BC"/>
<path d="M132.938 45.3207C133.063 44.9697 133.264 44.6511 133.528 44.3881C133.787 44.1243 134.099 43.9193 134.444 43.787C135.218 43.5025 136.068 43.5025 136.843 43.787C137.19 43.9178 137.504 44.123 137.764 44.3881C138.028 44.6511 138.229 44.9697 138.354 45.3207C138.498 45.7147 138.568 46.1317 138.562 46.5511C138.568 46.9668 138.498 47.3801 138.354 47.7702C138.228 48.1191 138.027 48.4365 137.766 48.7003C137.505 48.9642 137.19 49.1682 136.843 49.2982C136.067 49.5756 135.219 49.5756 134.444 49.2982C134.098 49.1668 133.784 48.9623 133.524 48.6986C133.264 48.4349 133.064 48.1182 132.938 47.7702C132.794 47.3801 132.724 46.9668 132.73 46.5511C132.724 46.1317 132.794 45.7147 132.938 45.3207V45.3207ZM134.343 47.2084C134.384 47.4072 134.461 47.5973 134.567 47.7702C134.672 47.939 134.817 48.0798 134.989 48.1803C135.189 48.2874 135.414 48.3397 135.64 48.3319C135.871 48.3396 136.099 48.2874 136.303 48.1803C136.475 48.0798 136.62 47.939 136.725 47.7702C136.832 47.5973 136.908 47.4072 136.949 47.2084C136.995 46.9922 137.017 46.7719 137.017 46.5511C137.017 46.3265 136.994 46.1025 136.949 45.8825C136.909 45.6832 136.833 45.4929 136.725 45.3207C136.612 45.1379 136.451 44.9892 136.26 44.8903C136.069 44.7914 135.855 44.746 135.64 44.7589C135.413 44.75 135.187 44.8045 134.989 44.9162C134.818 45.0184 134.674 45.1588 134.567 45.3263C134.459 45.4985 134.383 45.6888 134.343 45.8881C134.3 46.1083 134.279 46.3323 134.281 46.5567C134.278 46.7792 134.299 47.0014 134.343 47.2196V47.2084Z" fill="#1C75BC"/>
</g>
<defs>
<clipPath id="clip0">
<path d="M0 0H138.764V50H0V0Z" fill="white"/>
</clipPath>
</defs>
</svg>
