<svg width="282" height="282" viewBox="0 0 282 282" fill="none" xmlns="http://www.w3.org/2000/svg">
<circle cx="147" cy="3" r="3" fill="#3867D6"/>
<circle cx="147" cy="27" r="3" fill="#3867D6"/>
<circle cx="147" cy="51" r="3" fill="#3867D6"/>
<circle cx="147" cy="15" r="3" fill="#3867D6"/>
<circle cx="147" cy="39" r="3" fill="#3867D6"/>
<circle cx="147" cy="63" r="3" fill="#3867D6"/>
<circle cx="159" cy="3" r="3" fill="#3867D6"/>
<circle cx="159" cy="27" r="3" fill="#3867D6"/>
<circle cx="159" cy="51" r="3" fill="#3867D6"/>
<circle cx="159" cy="15" r="3" fill="#3867D6"/>
<circle cx="159" cy="39" r="3" fill="#3867D6"/>
<circle cx="159" cy="63" r="3" fill="#3867D6"/>
<circle cx="171" cy="3" r="3" fill="#3867D6"/>
<circle cx="171" cy="27" r="3" fill="#3867D6"/>
<circle cx="171" cy="51" r="3" fill="#3867D6"/>
<circle cx="171" cy="15" r="3" fill="#3867D6"/>
<circle cx="171" cy="39" r="3" fill="#3867D6"/>
<circle cx="171" cy="63" r="3" fill="#3867D6"/>
<circle cx="183" cy="3" r="3" fill="#3867D6"/>
<circle cx="183" cy="27" r="3" fill="#3867D6"/>
<circle cx="183" cy="51" r="3" fill="#3867D6"/>
<circle cx="183" cy="15" r="3" fill="#3867D6"/>
<circle cx="183" cy="39" r="3" fill="#3867D6"/>
<circle cx="183" cy="63" r="3" fill="#3867D6"/>
<circle cx="195" cy="3" r="3" fill="#3867D6"/>
<circle cx="195" cy="27" r="3" fill="#3867D6"/>
<circle cx="195" cy="51" r="3" fill="#3867D6"/>
<circle cx="195" cy="15" r="3" fill="#3867D6"/>
<circle cx="195" cy="39" r="3" fill="#3867D6"/>
<circle cx="195" cy="63" r="3" fill="#3867D6"/>
<circle cx="207" cy="3" r="3" fill="#3867D6"/>
<circle cx="207" cy="27" r="3" fill="#3867D6"/>
<circle cx="207" cy="51" r="3" fill="#3867D6"/>
<circle cx="207" cy="15" r="3" fill="#3867D6"/>
<circle cx="207" cy="39" r="3" fill="#3867D6"/>
<circle cx="207" cy="63" r="3" fill="#3867D6"/>
<circle cx="147" cy="75" r="3" fill="#3867D6"/>
<circle cx="147" cy="99" r="3" fill="#3867D6"/>
<circle cx="147" cy="123" r="3" fill="#3867D6"/>
<circle cx="147" cy="87" r="3" fill="#3867D6"/>
<circle cx="147" cy="111" r="3" fill="#3867D6"/>
<circle cx="147" cy="135" r="3" fill="#3867D6"/>
<circle cx="159" cy="75" r="3" fill="#3867D6"/>
<circle cx="159" cy="99" r="3" fill="#3867D6"/>
<circle cx="159" cy="123" r="3" fill="#3867D6"/>
<circle cx="159" cy="87" r="3" fill="#3867D6"/>
<circle cx="159" cy="111" r="3" fill="#3867D6"/>
<circle cx="159" cy="135" r="3" fill="#3867D6"/>
<circle cx="171" cy="75" r="3" fill="#3867D6"/>
<circle cx="171" cy="99" r="3" fill="#3867D6"/>
<circle cx="171" cy="123" r="3" fill="#3867D6"/>
<circle cx="171" cy="87" r="3" fill="#3867D6"/>
<circle cx="171" cy="111" r="3" fill="#3867D6"/>
<circle cx="171" cy="135" r="3" fill="#3867D6"/>
<circle cx="183" cy="75" r="3" fill="#3867D6"/>
<circle cx="183" cy="99" r="3" fill="#3867D6"/>
<circle cx="183" cy="123" r="3" fill="#3867D6"/>
<circle cx="183" cy="87" r="3" fill="#3867D6"/>
<circle cx="183" cy="111" r="3" fill="#3867D6"/>
<circle cx="183" cy="135" r="3" fill="#3867D6"/>
<circle cx="195" cy="75" r="3" fill="#3867D6"/>
<circle cx="195" cy="99" r="3" fill="#3867D6"/>
<circle cx="195" cy="123" r="3" fill="#3867D6"/>
<circle cx="195" cy="87" r="3" fill="#3867D6"/>
<circle cx="195" cy="111" r="3" fill="#3867D6"/>
<circle cx="195" cy="135" r="3" fill="#3867D6"/>
<circle cx="207" cy="75" r="3" fill="#3867D6"/>
<circle cx="207" cy="99" r="3" fill="#3867D6"/>
<circle cx="207" cy="123" r="3" fill="#3867D6"/>
<circle cx="207" cy="87" r="3" fill="#3867D6"/>
<circle cx="207" cy="111" r="3" fill="#3867D6"/>
<circle cx="207" cy="135" r="3" fill="#3867D6"/>
<circle cx="219" cy="3" r="3" fill="#3867D6"/>
<circle cx="219" cy="27" r="3" fill="#3867D6"/>
<circle cx="219" cy="51" r="3" fill="#3867D6"/>
<circle cx="219" cy="15" r="3" fill="#3867D6"/>
<circle cx="219" cy="39" r="3" fill="#3867D6"/>
<circle cx="219" cy="63" r="3" fill="#3867D6"/>
<circle cx="231" cy="3" r="3" fill="#3867D6"/>
<circle cx="231" cy="27" r="3" fill="#3867D6"/>
<circle cx="231" cy="51" r="3" fill="#3867D6"/>
<circle cx="231" cy="15" r="3" fill="#3867D6"/>
<circle cx="231" cy="39" r="3" fill="#3867D6"/>
<circle cx="231" cy="63" r="3" fill="#3867D6"/>
<circle cx="243" cy="3" r="3" fill="#3867D6"/>
<circle cx="243" cy="27" r="3" fill="#3867D6"/>
<circle cx="243" cy="51" r="3" fill="#3867D6"/>
<circle cx="243" cy="15" r="3" fill="#3867D6"/>
<circle cx="243" cy="39" r="3" fill="#3867D6"/>
<circle cx="243" cy="63" r="3" fill="#3867D6"/>
<circle cx="255" cy="3" r="3" fill="#3867D6"/>
<circle cx="255" cy="27" r="3" fill="#3867D6"/>
<circle cx="255" cy="51" r="3" fill="#3867D6"/>
<circle cx="255" cy="15" r="3" fill="#3867D6"/>
<circle cx="255" cy="39" r="3" fill="#3867D6"/>
<circle cx="255" cy="63" r="3" fill="#3867D6"/>
<circle cx="267" cy="3" r="3" fill="#3867D6"/>
<circle cx="267" cy="27" r="3" fill="#3867D6"/>
<circle cx="267" cy="51" r="3" fill="#3867D6"/>
<circle cx="267" cy="15" r="3" fill="#3867D6"/>
<circle cx="267" cy="39" r="3" fill="#3867D6"/>
<circle cx="267" cy="63" r="3" fill="#3867D6"/>
<circle cx="279" cy="3" r="3" fill="#3867D6"/>
<circle cx="279" cy="27" r="3" fill="#3867D6"/>
<circle cx="279" cy="51" r="3" fill="#3867D6"/>
<circle cx="279" cy="15" r="3" fill="#3867D6"/>
<circle cx="279" cy="39" r="3" fill="#3867D6"/>
<circle cx="279" cy="63" r="3" fill="#3867D6"/>
<circle cx="219" cy="75" r="3" fill="#3867D6"/>
<circle cx="219" cy="99" r="3" fill="#3867D6"/>
<circle cx="219" cy="123" r="3" fill="#3867D6"/>
<circle cx="219" cy="87" r="3" fill="#3867D6"/>
<circle cx="219" cy="111" r="3" fill="#3867D6"/>
<circle cx="219" cy="135" r="3" fill="#3867D6"/>
<circle cx="231" cy="75" r="3" fill="#3867D6"/>
<circle cx="231" cy="99" r="3" fill="#3867D6"/>
<circle cx="231" cy="123" r="3" fill="#3867D6"/>
<circle cx="231" cy="87" r="3" fill="#3867D6"/>
<circle cx="231" cy="111" r="3" fill="#3867D6"/>
<circle cx="231" cy="135" r="3" fill="#3867D6"/>
<circle cx="243" cy="75" r="3" fill="#3867D6"/>
<circle cx="243" cy="99" r="3" fill="#3867D6"/>
<circle cx="243" cy="123" r="3" fill="#3867D6"/>
<circle cx="243" cy="87" r="3" fill="#3867D6"/>
<circle cx="243" cy="111" r="3" fill="#3867D6"/>
<circle cx="243" cy="135" r="3" fill="#3867D6"/>
<circle cx="255" cy="75" r="3" fill="#3867D6"/>
<circle cx="255" cy="99" r="3" fill="#3867D6"/>
<circle cx="255" cy="123" r="3" fill="#3867D6"/>
<circle cx="255" cy="87" r="3" fill="#3867D6"/>
<circle cx="255" cy="111" r="3" fill="#3867D6"/>
<circle cx="255" cy="135" r="3" fill="#3867D6"/>
<circle cx="267" cy="75" r="3" fill="#3867D6"/>
<circle cx="267" cy="99" r="3" fill="#3867D6"/>
<circle cx="267" cy="123" r="3" fill="#3867D6"/>
<circle cx="267" cy="87" r="3" fill="#3867D6"/>
<circle cx="267" cy="111" r="3" fill="#3867D6"/>
<circle cx="267" cy="135" r="3" fill="#3867D6"/>
<circle cx="279" cy="75" r="3" fill="#3867D6"/>
<circle cx="279" cy="99" r="3" fill="#3867D6"/>
<circle cx="279" cy="123" r="3" fill="#3867D6"/>
<circle cx="279" cy="87" r="3" fill="#3867D6"/>
<circle cx="279" cy="111" r="3" fill="#3867D6"/>
<circle cx="279" cy="135" r="3" fill="#3867D6"/>
<circle cx="147" cy="147" r="3" fill="#3867D6"/>
<circle cx="147" cy="171" r="3" fill="#3867D6"/>
<circle cx="147" cy="195" r="3" fill="#3867D6"/>
<circle cx="147" cy="159" r="3" fill="#3867D6"/>
<circle cx="147" cy="183" r="3" fill="#3867D6"/>
<circle cx="147" cy="207" r="3" fill="#3867D6"/>
<circle cx="159" cy="147" r="3" fill="#3867D6"/>
<circle cx="159" cy="171" r="3" fill="#3867D6"/>
<circle cx="159" cy="195" r="3" fill="#3867D6"/>
<circle cx="159" cy="159" r="3" fill="#3867D6"/>
<circle cx="159" cy="183" r="3" fill="#3867D6"/>
<circle cx="159" cy="207" r="3" fill="#3867D6"/>
<circle cx="171" cy="147" r="3" fill="#3867D6"/>
<circle cx="171" cy="171" r="3" fill="#3867D6"/>
<circle cx="171" cy="195" r="3" fill="#3867D6"/>
<circle cx="171" cy="159" r="3" fill="#3867D6"/>
<circle cx="171" cy="183" r="3" fill="#3867D6"/>
<circle cx="171" cy="207" r="3" fill="#3867D6"/>
<circle cx="183" cy="147" r="3" fill="#3867D6"/>
<circle cx="183" cy="171" r="3" fill="#3867D6"/>
<circle cx="183" cy="195" r="3" fill="#3867D6"/>
<circle cx="183" cy="159" r="3" fill="#3867D6"/>
<circle cx="183" cy="183" r="3" fill="#3867D6"/>
<circle cx="183" cy="207" r="3" fill="#3867D6"/>
<circle cx="195" cy="147" r="3" fill="#3867D6"/>
<circle cx="195" cy="171" r="3" fill="#3867D6"/>
<circle cx="195" cy="195" r="3" fill="#3867D6"/>
<circle cx="195" cy="159" r="3" fill="#3867D6"/>
<circle cx="195" cy="183" r="3" fill="#3867D6"/>
<circle cx="195" cy="207" r="3" fill="#3867D6"/>
<circle cx="207" cy="147" r="3" fill="#3867D6"/>
<circle cx="207" cy="171" r="3" fill="#3867D6"/>
<circle cx="207" cy="195" r="3" fill="#3867D6"/>
<circle cx="207" cy="159" r="3" fill="#3867D6"/>
<circle cx="207" cy="183" r="3" fill="#3867D6"/>
<circle cx="207" cy="207" r="3" fill="#3867D6"/>
<circle cx="147" cy="219" r="3" fill="#3867D6"/>
<circle cx="147" cy="243" r="3" fill="#3867D6"/>
<circle cx="147" cy="267" r="3" fill="#3867D6"/>
<circle cx="147" cy="231" r="3" fill="#3867D6"/>
<circle cx="147" cy="255" r="3" fill="#3867D6"/>
<circle cx="147" cy="279" r="3" fill="#3867D6"/>
<circle cx="159" cy="219" r="3" fill="#3867D6"/>
<circle cx="159" cy="243" r="3" fill="#3867D6"/>
<circle cx="159" cy="267" r="3" fill="#3867D6"/>
<circle cx="159" cy="231" r="3" fill="#3867D6"/>
<circle cx="159" cy="255" r="3" fill="#3867D6"/>
<circle cx="159" cy="279" r="3" fill="#3867D6"/>
<circle cx="171" cy="219" r="3" fill="#3867D6"/>
<circle cx="171" cy="243" r="3" fill="#3867D6"/>
<circle cx="171" cy="267" r="3" fill="#3867D6"/>
<circle cx="171" cy="231" r="3" fill="#3867D6"/>
<circle cx="171" cy="255" r="3" fill="#3867D6"/>
<circle cx="171" cy="279" r="3" fill="#3867D6"/>
<circle cx="183" cy="219" r="3" fill="#3867D6"/>
<circle cx="183" cy="243" r="3" fill="#3867D6"/>
<circle cx="183" cy="267" r="3" fill="#3867D6"/>
<circle cx="183" cy="231" r="3" fill="#3867D6"/>
<circle cx="183" cy="255" r="3" fill="#3867D6"/>
<circle cx="183" cy="279" r="3" fill="#3867D6"/>
<circle cx="195" cy="219" r="3" fill="#3867D6"/>
<circle cx="195" cy="243" r="3" fill="#3867D6"/>
<circle cx="195" cy="267" r="3" fill="#3867D6"/>
<circle cx="195" cy="231" r="3" fill="#3867D6"/>
<circle cx="195" cy="255" r="3" fill="#3867D6"/>
<circle cx="195" cy="279" r="3" fill="#3867D6"/>
<circle cx="207" cy="219" r="3" fill="#3867D6"/>
<circle cx="207" cy="243" r="3" fill="#3867D6"/>
<circle cx="207" cy="267" r="3" fill="#3867D6"/>
<circle cx="207" cy="231" r="3" fill="#3867D6"/>
<circle cx="207" cy="255" r="3" fill="#3867D6"/>
<circle cx="207" cy="279" r="3" fill="#3867D6"/>
<circle cx="219" cy="147" r="3" fill="#3867D6"/>
<circle cx="219" cy="171" r="3" fill="#3867D6"/>
<circle cx="219" cy="195" r="3" fill="#3867D6"/>
<circle cx="219" cy="159" r="3" fill="#3867D6"/>
<circle cx="219" cy="183" r="3" fill="#3867D6"/>
<circle cx="219" cy="207" r="3" fill="#3867D6"/>
<circle cx="231" cy="147" r="3" fill="#3867D6"/>
<circle cx="231" cy="171" r="3" fill="#3867D6"/>
<circle cx="231" cy="195" r="3" fill="#3867D6"/>
<circle cx="231" cy="159" r="3" fill="#3867D6"/>
<circle cx="231" cy="183" r="3" fill="#3867D6"/>
<circle cx="231" cy="207" r="3" fill="#3867D6"/>
<circle cx="243" cy="147" r="3" fill="#3867D6"/>
<circle cx="243" cy="171" r="3" fill="#3867D6"/>
<circle cx="243" cy="195" r="3" fill="#3867D6"/>
<circle cx="243" cy="159" r="3" fill="#3867D6"/>
<circle cx="243" cy="183" r="3" fill="#3867D6"/>
<circle cx="243" cy="207" r="3" fill="#3867D6"/>
<circle cx="255" cy="147" r="3" fill="#3867D6"/>
<circle cx="255" cy="171" r="3" fill="#3867D6"/>
<circle cx="255" cy="195" r="3" fill="#3867D6"/>
<circle cx="255" cy="159" r="3" fill="#3867D6"/>
<circle cx="255" cy="183" r="3" fill="#3867D6"/>
<circle cx="255" cy="207" r="3" fill="#3867D6"/>
<circle cx="267" cy="147" r="3" fill="#3867D6"/>
<circle cx="267" cy="171" r="3" fill="#3867D6"/>
<circle cx="267" cy="195" r="3" fill="#3867D6"/>
<circle cx="267" cy="159" r="3" fill="#3867D6"/>
<circle cx="267" cy="183" r="3" fill="#3867D6"/>
<circle cx="267" cy="207" r="3" fill="#3867D6"/>
<circle cx="279" cy="147" r="3" fill="#3867D6"/>
<circle cx="279" cy="171" r="3" fill="#3867D6"/>
<circle cx="279" cy="195" r="3" fill="#3867D6"/>
<circle cx="279" cy="159" r="3" fill="#3867D6"/>
<circle cx="279" cy="183" r="3" fill="#3867D6"/>
<circle cx="279" cy="207" r="3" fill="#3867D6"/>
<circle cx="219" cy="219" r="3" fill="#3867D6"/>
<circle cx="219" cy="243" r="3" fill="#3867D6"/>
<circle cx="219" cy="267" r="3" fill="#3867D6"/>
<circle cx="219" cy="231" r="3" fill="#3867D6"/>
<circle cx="219" cy="255" r="3" fill="#3867D6"/>
<circle cx="219" cy="279" r="3" fill="#3867D6"/>
<circle cx="231" cy="219" r="3" fill="#3867D6"/>
<circle cx="231" cy="243" r="3" fill="#3867D6"/>
<circle cx="231" cy="267" r="3" fill="#3867D6"/>
<circle cx="231" cy="231" r="3" fill="#3867D6"/>
<circle cx="231" cy="255" r="3" fill="#3867D6"/>
<circle cx="231" cy="279" r="3" fill="#3867D6"/>
<circle cx="243" cy="219" r="3" fill="#3867D6"/>
<circle cx="243" cy="243" r="3" fill="#3867D6"/>
<circle cx="243" cy="267" r="3" fill="#3867D6"/>
<circle cx="243" cy="231" r="3" fill="#3867D6"/>
<circle cx="243" cy="255" r="3" fill="#3867D6"/>
<circle cx="243" cy="279" r="3" fill="#3867D6"/>
<circle cx="255" cy="219" r="3" fill="#3867D6"/>
<circle cx="255" cy="243" r="3" fill="#3867D6"/>
<circle cx="255" cy="267" r="3" fill="#3867D6"/>
<circle cx="255" cy="231" r="3" fill="#3867D6"/>
<circle cx="255" cy="255" r="3" fill="#3867D6"/>
<circle cx="255" cy="279" r="3" fill="#3867D6"/>
<circle cx="267" cy="219" r="3" fill="#3867D6"/>
<circle cx="267" cy="243" r="3" fill="#3867D6"/>
<circle cx="267" cy="267" r="3" fill="#3867D6"/>
<circle cx="267" cy="231" r="3" fill="#3867D6"/>
<circle cx="267" cy="255" r="3" fill="#3867D6"/>
<circle cx="267" cy="279" r="3" fill="#3867D6"/>
<circle cx="279" cy="219" r="3" fill="#3867D6"/>
<circle cx="279" cy="243" r="3" fill="#3867D6"/>
<circle cx="279" cy="267" r="3" fill="#3867D6"/>
<circle cx="279" cy="231" r="3" fill="#3867D6"/>
<circle cx="279" cy="255" r="3" fill="#3867D6"/>
<circle cx="279" cy="279" r="3" fill="#3867D6"/>
<circle cx="3" cy="3" r="3" fill="#3867D6"/>
<circle cx="3" cy="27" r="3" fill="#3867D6"/>
<circle cx="3" cy="51" r="3" fill="#3867D6"/>
<circle cx="3" cy="15" r="3" fill="#3867D6"/>
<circle cx="3" cy="39" r="3" fill="#3867D6"/>
<circle cx="3" cy="63" r="3" fill="#3867D6"/>
<circle cx="15" cy="3" r="3" fill="#3867D6"/>
<circle cx="15" cy="27" r="3" fill="#3867D6"/>
<circle cx="15" cy="51" r="3" fill="#3867D6"/>
<circle cx="15" cy="15" r="3" fill="#3867D6"/>
<circle cx="15" cy="39" r="3" fill="#3867D6"/>
<circle cx="15" cy="63" r="3" fill="#3867D6"/>
<circle cx="27" cy="3" r="3" fill="#3867D6"/>
<circle cx="27" cy="27" r="3" fill="#3867D6"/>
<circle cx="27" cy="51" r="3" fill="#3867D6"/>
<circle cx="27" cy="15" r="3" fill="#3867D6"/>
<circle cx="27" cy="39" r="3" fill="#3867D6"/>
<circle cx="27" cy="63" r="3" fill="#3867D6"/>
<circle cx="39" cy="3" r="3" fill="#3867D6"/>
<circle cx="39" cy="27" r="3" fill="#3867D6"/>
<circle cx="39" cy="51" r="3" fill="#3867D6"/>
<circle cx="39" cy="15" r="3" fill="#3867D6"/>
<circle cx="39" cy="39" r="3" fill="#3867D6"/>
<circle cx="39" cy="63" r="3" fill="#3867D6"/>
<circle cx="51" cy="3" r="3" fill="#3867D6"/>
<circle cx="51" cy="27" r="3" fill="#3867D6"/>
<circle cx="51" cy="51" r="3" fill="#3867D6"/>
<circle cx="51" cy="15" r="3" fill="#3867D6"/>
<circle cx="51" cy="39" r="3" fill="#3867D6"/>
<circle cx="51" cy="63" r="3" fill="#3867D6"/>
<circle cx="63" cy="3" r="3" fill="#3867D6"/>
<circle cx="63" cy="27" r="3" fill="#3867D6"/>
<circle cx="63" cy="51" r="3" fill="#3867D6"/>
<circle cx="63" cy="15" r="3" fill="#3867D6"/>
<circle cx="63" cy="39" r="3" fill="#3867D6"/>
<circle cx="63" cy="63" r="3" fill="#3867D6"/>
<circle cx="3" cy="75" r="3" fill="#3867D6"/>
<circle cx="3" cy="99" r="3" fill="#3867D6"/>
<circle cx="3" cy="123" r="3" fill="#3867D6"/>
<circle cx="3" cy="87" r="3" fill="#3867D6"/>
<circle cx="3" cy="111" r="3" fill="#3867D6"/>
<circle cx="3" cy="135" r="3" fill="#3867D6"/>
<circle cx="15" cy="75" r="3" fill="#3867D6"/>
<circle cx="15" cy="99" r="3" fill="#3867D6"/>
<circle cx="15" cy="123" r="3" fill="#3867D6"/>
<circle cx="15" cy="87" r="3" fill="#3867D6"/>
<circle cx="15" cy="111" r="3" fill="#3867D6"/>
<circle cx="15" cy="135" r="3" fill="#3867D6"/>
<circle cx="27" cy="75" r="3" fill="#3867D6"/>
<circle cx="27" cy="99" r="3" fill="#3867D6"/>
<circle cx="27" cy="123" r="3" fill="#3867D6"/>
<circle cx="27" cy="87" r="3" fill="#3867D6"/>
<circle cx="27" cy="111" r="3" fill="#3867D6"/>
<circle cx="27" cy="135" r="3" fill="#3867D6"/>
<circle cx="39" cy="75" r="3" fill="#3867D6"/>
<circle cx="39" cy="99" r="3" fill="#3867D6"/>
<circle cx="39" cy="123" r="3" fill="#3867D6"/>
<circle cx="39" cy="87" r="3" fill="#3867D6"/>
<circle cx="39" cy="111" r="3" fill="#3867D6"/>
<circle cx="39" cy="135" r="3" fill="#3867D6"/>
<circle cx="51" cy="75" r="3" fill="#3867D6"/>
<circle cx="51" cy="99" r="3" fill="#3867D6"/>
<circle cx="51" cy="123" r="3" fill="#3867D6"/>
<circle cx="51" cy="87" r="3" fill="#3867D6"/>
<circle cx="51" cy="111" r="3" fill="#3867D6"/>
<circle cx="51" cy="135" r="3" fill="#3867D6"/>
<circle cx="63" cy="75" r="3" fill="#3867D6"/>
<circle cx="63" cy="99" r="3" fill="#3867D6"/>
<circle cx="63" cy="123" r="3" fill="#3867D6"/>
<circle cx="63" cy="87" r="3" fill="#3867D6"/>
<circle cx="63" cy="111" r="3" fill="#3867D6"/>
<circle cx="63" cy="135" r="3" fill="#3867D6"/>
<circle cx="75" cy="3" r="3" fill="#3867D6"/>
<circle cx="75" cy="27" r="3" fill="#3867D6"/>
<circle cx="75" cy="51" r="3" fill="#3867D6"/>
<circle cx="75" cy="15" r="3" fill="#3867D6"/>
<circle cx="75" cy="39" r="3" fill="#3867D6"/>
<circle cx="75" cy="63" r="3" fill="#3867D6"/>
<circle cx="87" cy="3" r="3" fill="#3867D6"/>
<circle cx="87" cy="27" r="3" fill="#3867D6"/>
<circle cx="87" cy="51" r="3" fill="#3867D6"/>
<circle cx="87" cy="15" r="3" fill="#3867D6"/>
<circle cx="87" cy="39" r="3" fill="#3867D6"/>
<circle cx="87" cy="63" r="3" fill="#3867D6"/>
<circle cx="99" cy="3" r="3" fill="#3867D6"/>
<circle cx="99" cy="27" r="3" fill="#3867D6"/>
<circle cx="99" cy="51" r="3" fill="#3867D6"/>
<circle cx="99" cy="15" r="3" fill="#3867D6"/>
<circle cx="99" cy="39" r="3" fill="#3867D6"/>
<circle cx="99" cy="63" r="3" fill="#3867D6"/>
<circle cx="111" cy="3" r="3" fill="#3867D6"/>
<circle cx="111" cy="27" r="3" fill="#3867D6"/>
<circle cx="111" cy="51" r="3" fill="#3867D6"/>
<circle cx="111" cy="15" r="3" fill="#3867D6"/>
<circle cx="111" cy="39" r="3" fill="#3867D6"/>
<circle cx="111" cy="63" r="3" fill="#3867D6"/>
<circle cx="123" cy="3" r="3" fill="#3867D6"/>
<circle cx="123" cy="27" r="3" fill="#3867D6"/>
<circle cx="123" cy="51" r="3" fill="#3867D6"/>
<circle cx="123" cy="15" r="3" fill="#3867D6"/>
<circle cx="123" cy="39" r="3" fill="#3867D6"/>
<circle cx="123" cy="63" r="3" fill="#3867D6"/>
<circle cx="135" cy="3" r="3" fill="#3867D6"/>
<circle cx="135" cy="27" r="3" fill="#3867D6"/>
<circle cx="135" cy="51" r="3" fill="#3867D6"/>
<circle cx="135" cy="15" r="3" fill="#3867D6"/>
<circle cx="135" cy="39" r="3" fill="#3867D6"/>
<circle cx="135" cy="63" r="3" fill="#3867D6"/>
<circle cx="75" cy="75" r="3" fill="#3867D6"/>
<circle cx="75" cy="99" r="3" fill="#3867D6"/>
<circle cx="75" cy="123" r="3" fill="#3867D6"/>
<circle cx="75" cy="87" r="3" fill="#3867D6"/>
<circle cx="75" cy="111" r="3" fill="#3867D6"/>
<circle cx="75" cy="135" r="3" fill="#3867D6"/>
<circle cx="87" cy="75" r="3" fill="#3867D6"/>
<circle cx="87" cy="99" r="3" fill="#3867D6"/>
<circle cx="87" cy="123" r="3" fill="#3867D6"/>
<circle cx="87" cy="87" r="3" fill="#3867D6"/>
<circle cx="87" cy="111" r="3" fill="#3867D6"/>
<circle cx="87" cy="135" r="3" fill="#3867D6"/>
<circle cx="99" cy="75" r="3" fill="#3867D6"/>
<circle cx="99" cy="99" r="3" fill="#3867D6"/>
<circle cx="99" cy="123" r="3" fill="#3867D6"/>
<circle cx="99" cy="87" r="3" fill="#3867D6"/>
<circle cx="99" cy="111" r="3" fill="#3867D6"/>
<circle cx="99" cy="135" r="3" fill="#3867D6"/>
<circle cx="111" cy="75" r="3" fill="#3867D6"/>
<circle cx="111" cy="99" r="3" fill="#3867D6"/>
<circle cx="111" cy="123" r="3" fill="#3867D6"/>
<circle cx="111" cy="87" r="3" fill="#3867D6"/>
<circle cx="111" cy="111" r="3" fill="#3867D6"/>
<circle cx="111" cy="135" r="3" fill="#3867D6"/>
<circle cx="123" cy="75" r="3" fill="#3867D6"/>
<circle cx="123" cy="99" r="3" fill="#3867D6"/>
<circle cx="123" cy="123" r="3" fill="#3867D6"/>
<circle cx="123" cy="87" r="3" fill="#3867D6"/>
<circle cx="123" cy="111" r="3" fill="#3867D6"/>
<circle cx="123" cy="135" r="3" fill="#3867D6"/>
<circle cx="135" cy="75" r="3" fill="#3867D6"/>
<circle cx="135" cy="99" r="3" fill="#3867D6"/>
<circle cx="135" cy="123" r="3" fill="#3867D6"/>
<circle cx="135" cy="87" r="3" fill="#3867D6"/>
<circle cx="135" cy="111" r="3" fill="#3867D6"/>
<circle cx="135" cy="135" r="3" fill="#3867D6"/>
</svg>
