<?xml version="1.0" standalone="no"?>
<!DOCTYPE svg PUBLIC "-//W3C//DTD SVG 20010904//EN"
 "http://www.w3.org/TR/2001/REC-SVG-20010904/DTD/svg10.dtd">
<svg version="1.0" xmlns="http://www.w3.org/2000/svg"
 width="700.000000pt" height="700.000000pt" viewBox="0 0 700.000000 700.000000"
 preserveAspectRatio="xMidYMid meet">
<metadata>
Created by potrace 1.11, written by Peter Selinger 2001-2013
</metadata>
<g transform="translate(0.000000,700.000000) scale(0.100000,-0.100000)"
fill="#000000" stroke="none">
<path d="M1115 6984 c-564 -101 -1003 -542 -1100 -1108 -20 -115 -19 -327 1
-447 33 -195 121 -404 241 -570 114 -160 307 -322 486 -410 l67 -33 0 -1212
c0 -1302 -1 -1283 52 -1459 122 -414 470 -761 884 -884 168 -50 196 -51 1000
-51 l754 0 0 -76 c0 -104 24 -203 75 -309 78 -161 198 -279 360 -355 155 -73
98 -70 1315 -70 1217 0 1160 -3 1315 70 505 236 590 922 157 1271 -150 121
-267 159 -504 166 -93 3 -168 7 -168 8 0 2 16 39 34 84 44 103 71 193 91 305
23 132 23 3057 0 3192 -94 551 -526 984 -1074 1078 -83 14 -239 16 -1306 16
l-1211 0 -29 63 c-83 173 -257 379 -423 497 -164 117 -372 204 -562 235 -118
19 -346 18 -455 -1z"/>
</g>
</svg>
