<svg width="99" height="102" viewBox="0 0 99 102" fill="none" xmlns="http://www.w3.org/2000/svg">
<path d="M9 85C10.1046 85 11 85.8954 11 87C11 89.2091 12.7909 91 15 91C16.1046 91 17 91.8954 17 93C17 94.1046 16.1046 95 15 95C12.7909 95 11 96.7909 11 99C11 100.105 10.1046 101 9 101C7.89542 101 7 100.105 7 99C7 96.7909 5.20914 95 3 95C1.89542 95 1 94.1046 1 93C1 91.8954 1.89542 91 3 91C5.20914 91 7 89.2091 7 87C7 85.8954 7.89542 85 9 85Z" stroke="white" stroke-width="2"/>
<circle cx="90" cy="9" r="8" stroke="white" stroke-width="2"/>
</svg>
