<svg width="450" height="522" viewBox="0 0 450 522" fill="none" xmlns="http://www.w3.org/2000/svg">
<path opacity="0.1" fill-rule="evenodd" clip-rule="evenodd" d="M147 150C148.657 150 150 148.657 150 147C150 145.343 148.657 144 147 144C145.343 144 144 145.343 144 147C144 148.657 145.343 150 147 150ZM147 174C148.657 174 150 172.657 150 171C150 169.343 148.657 168 147 168C145.343 168 144 169.343 144 171C144 172.657 145.343 174 147 174ZM150 195C150 196.657 148.657 198 147 198C145.343 198 144 196.657 144 195C144 193.343 145.343 192 147 192C148.657 192 150 193.343 150 195ZM147 162C148.657 162 150 160.657 150 159C150 157.343 148.657 156 147 156C145.343 156 144 157.343 144 159C144 160.657 145.343 162 147 162ZM150 183C150 184.657 148.657 186 147 186C145.343 186 144 184.657 144 183C144 181.343 145.343 180 147 180C148.657 180 150 181.343 150 183ZM147 210C148.657 210 150 208.657 150 207C150 205.343 148.657 204 147 204C145.343 204 144 205.343 144 207C144 208.657 145.343 210 147 210ZM162 147C162 148.657 160.657 150 159 150C157.343 150 156 148.657 156 147C156 145.343 157.343 144 159 144C160.657 144 162 145.343 162 147ZM159 174C160.657 174 162 172.657 162 171C162 169.343 160.657 168 159 168C157.343 168 156 169.343 156 171C156 172.657 157.343 174 159 174ZM162 195C162 196.657 160.657 198 159 198C157.343 198 156 196.657 156 195C156 193.343 157.343 192 159 192C160.657 192 162 193.343 162 195ZM159 162C160.657 162 162 160.657 162 159C162 157.343 160.657 156 159 156C157.343 156 156 157.343 156 159C156 160.657 157.343 162 159 162ZM162 183C162 184.657 160.657 186 159 186C157.343 186 156 184.657 156 183C156 181.343 157.343 180 159 180C160.657 180 162 181.343 162 183ZM159 210C160.657 210 162 208.657 162 207C162 205.343 160.657 204 159 204C157.343 204 156 205.343 156 207C156 208.657 157.343 210 159 210ZM174 147C174 148.657 172.657 150 171 150C169.343 150 168 148.657 168 147C168 145.343 169.343 144 171 144C172.657 144 174 145.343 174 147ZM171 174C172.657 174 174 172.657 174 171C174 169.343 172.657 168 171 168C169.343 168 168 169.343 168 171C168 172.657 169.343 174 171 174ZM174 195C174 196.657 172.657 198 171 198C169.343 198 168 196.657 168 195C168 193.343 169.343 192 171 192C172.657 192 174 193.343 174 195ZM171 162C172.657 162 174 160.657 174 159C174 157.343 172.657 156 171 156C169.343 156 168 157.343 168 159C168 160.657 169.343 162 171 162ZM174 183C174 184.657 172.657 186 171 186C169.343 186 168 184.657 168 183C168 181.343 169.343 180 171 180C172.657 180 174 181.343 174 183ZM171 210C172.657 210 174 208.657 174 207C174 205.343 172.657 204 171 204C169.343 204 168 205.343 168 207C168 208.657 169.343 210 171 210ZM186 147C186 148.657 184.657 150 183 150C181.343 150 180 148.657 180 147C180 145.343 181.343 144 183 144C184.657 144 186 145.343 186 147ZM183 174C184.657 174 186 172.657 186 171C186 169.343 184.657 168 183 168C181.343 168 180 169.343 180 171C180 172.657 181.343 174 183 174ZM186 195C186 196.657 184.657 198 183 198C181.343 198 180 196.657 180 195C180 193.343 181.343 192 183 192C184.657 192 186 193.343 186 195ZM183 162C184.657 162 186 160.657 186 159C186 157.343 184.657 156 183 156C181.343 156 180 157.343 180 159C180 160.657 181.343 162 183 162ZM186 183C186 184.657 184.657 186 183 186C181.343 186 180 184.657 180 183C180 181.343 181.343 180 183 180C184.657 180 186 181.343 186 183ZM183 210C184.657 210 186 208.657 186 207C186 205.343 184.657 204 183 204C181.343 204 180 205.343 180 207C180 208.657 181.343 210 183 210ZM198 147C198 148.657 196.657 150 195 150C193.343 150 192 148.657 192 147C192 145.343 193.343 144 195 144C196.657 144 198 145.343 198 147ZM195 174C196.657 174 198 172.657 198 171C198 169.343 196.657 168 195 168C193.343 168 192 169.343 192 171C192 172.657 193.343 174 195 174ZM198 195C198 196.657 196.657 198 195 198C193.343 198 192 196.657 192 195C192 193.343 193.343 192 195 192C196.657 192 198 193.343 198 195ZM195 162C196.657 162 198 160.657 198 159C198 157.343 196.657 156 195 156C193.343 156 192 157.343 192 159C192 160.657 193.343 162 195 162ZM198 183C198 184.657 196.657 186 195 186C193.343 186 192 184.657 192 183C192 181.343 193.343 180 195 180C196.657 180 198 181.343 198 183ZM195 210C196.657 210 198 208.657 198 207C198 205.343 196.657 204 195 204C193.343 204 192 205.343 192 207C192 208.657 193.343 210 195 210ZM210 147C210 148.657 208.657 150 207 150C205.343 150 204 148.657 204 147C204 145.343 205.343 144 207 144C208.657 144 210 145.343 210 147ZM207 174C208.657 174 210 172.657 210 171C210 169.343 208.657 168 207 168C205.343 168 204 169.343 204 171C204 172.657 205.343 174 207 174ZM210 195C210 196.657 208.657 198 207 198C205.343 198 204 196.657 204 195C204 193.343 205.343 192 207 192C208.657 192 210 193.343 210 195ZM207 162C208.657 162 210 160.657 210 159C210 157.343 208.657 156 207 156C205.343 156 204 157.343 204 159C204 160.657 205.343 162 207 162ZM210 183C210 184.657 208.657 186 207 186C205.343 186 204 184.657 204 183C204 181.343 205.343 180 207 180C208.657 180 210 181.343 210 183ZM207 210C208.657 210 210 208.657 210 207C210 205.343 208.657 204 207 204C205.343 204 204 205.343 204 207C204 208.657 205.343 210 207 210ZM150 219C150 220.657 148.657 222 147 222C145.343 222 144 220.657 144 219C144 217.343 145.343 216 147 216C148.657 216 150 217.343 150 219ZM147 246C148.657 246 150 244.657 150 243C150 241.343 148.657 240 147 240C145.343 240 144 241.343 144 243C144 244.657 145.343 246 147 246ZM150 267C150 268.657 148.657 270 147 270C145.343 270 144 268.657 144 267C144 265.343 145.343 264 147 264C148.657 264 150 265.343 150 267ZM147 234C148.657 234 150 232.657 150 231C150 229.343 148.657 228 147 228C145.343 228 144 229.343 144 231C144 232.657 145.343 234 147 234ZM150 255C150 256.657 148.657 258 147 258C145.343 258 144 256.657 144 255C144 253.343 145.343 252 147 252C148.657 252 150 253.343 150 255ZM147 282C148.657 282 150 280.657 150 279C150 277.343 148.657 276 147 276C145.343 276 144 277.343 144 279C144 280.657 145.343 282 147 282ZM162 219C162 220.657 160.657 222 159 222C157.343 222 156 220.657 156 219C156 217.343 157.343 216 159 216C160.657 216 162 217.343 162 219ZM159 246C160.657 246 162 244.657 162 243C162 241.343 160.657 240 159 240C157.343 240 156 241.343 156 243C156 244.657 157.343 246 159 246ZM162 267C162 268.657 160.657 270 159 270C157.343 270 156 268.657 156 267C156 265.343 157.343 264 159 264C160.657 264 162 265.343 162 267ZM159 234C160.657 234 162 232.657 162 231C162 229.343 160.657 228 159 228C157.343 228 156 229.343 156 231C156 232.657 157.343 234 159 234ZM162 255C162 256.657 160.657 258 159 258C157.343 258 156 256.657 156 255C156 253.343 157.343 252 159 252C160.657 252 162 253.343 162 255ZM159 282C160.657 282 162 280.657 162 279C162 277.343 160.657 276 159 276C157.343 276 156 277.343 156 279C156 280.657 157.343 282 159 282ZM174 219C174 220.657 172.657 222 171 222C169.343 222 168 220.657 168 219C168 217.343 169.343 216 171 216C172.657 216 174 217.343 174 219ZM171 246C172.657 246 174 244.657 174 243C174 241.343 172.657 240 171 240C169.343 240 168 241.343 168 243C168 244.657 169.343 246 171 246ZM174 267C174 268.657 172.657 270 171 270C169.343 270 168 268.657 168 267C168 265.343 169.343 264 171 264C172.657 264 174 265.343 174 267ZM171 234C172.657 234 174 232.657 174 231C174 229.343 172.657 228 171 228C169.343 228 168 229.343 168 231C168 232.657 169.343 234 171 234ZM174 255C174 256.657 172.657 258 171 258C169.343 258 168 256.657 168 255C168 253.343 169.343 252 171 252C172.657 252 174 253.343 174 255ZM171 282C172.657 282 174 280.657 174 279C174 277.343 172.657 276 171 276C169.343 276 168 277.343 168 279C168 280.657 169.343 282 171 282ZM186 219C186 220.657 184.657 222 183 222C181.343 222 180 220.657 180 219C180 217.343 181.343 216 183 216C184.657 216 186 217.343 186 219ZM183 246C184.657 246 186 244.657 186 243C186 241.343 184.657 240 183 240C181.343 240 180 241.343 180 243C180 244.657 181.343 246 183 246ZM186 267C186 268.657 184.657 270 183 270C181.343 270 180 268.657 180 267C180 265.343 181.343 264 183 264C184.657 264 186 265.343 186 267ZM183 234C184.657 234 186 232.657 186 231C186 229.343 184.657 228 183 228C181.343 228 180 229.343 180 231C180 232.657 181.343 234 183 234ZM186 255C186 256.657 184.657 258 183 258C181.343 258 180 256.657 180 255C180 253.343 181.343 252 183 252C184.657 252 186 253.343 186 255ZM183 282C184.657 282 186 280.657 186 279C186 277.343 184.657 276 183 276C181.343 276 180 277.343 180 279C180 280.657 181.343 282 183 282ZM198 219C198 220.657 196.657 222 195 222C193.343 222 192 220.657 192 219C192 217.343 193.343 216 195 216C196.657 216 198 217.343 198 219ZM195 246C196.657 246 198 244.657 198 243C198 241.343 196.657 240 195 240C193.343 240 192 241.343 192 243C192 244.657 193.343 246 195 246ZM198 267C198 268.657 196.657 270 195 270C193.343 270 192 268.657 192 267C192 265.343 193.343 264 195 264C196.657 264 198 265.343 198 267ZM195 234C196.657 234 198 232.657 198 231C198 229.343 196.657 228 195 228C193.343 228 192 229.343 192 231C192 232.657 193.343 234 195 234ZM198 255C198 256.657 196.657 258 195 258C193.343 258 192 256.657 192 255C192 253.343 193.343 252 195 252C196.657 252 198 253.343 198 255ZM208.716 240.539L204.088 242.274C204.413 240.968 205.594 240 207 240C207.638 240 208.229 240.199 208.716 240.539ZM244 245.829V245.25C244 244.833 243.741 244.46 243.351 244.314L240.001 243.057C240 243.038 240 243.019 240 243C240 241.343 241.343 240 243 240C244.657 240 246 241.343 246 243C246 244.306 245.165 245.417 244 245.829ZM244 257.829V252.171C245.165 252.583 246 253.694 246 255C246 256.306 245.165 257.417 244 257.829ZM243.228 269.991C243.722 268.241 244 266.408 244 264.5V264.171C245.165 264.583 246 265.694 246 267C246 268.58 244.778 269.875 243.228 269.991ZM205.782 281.742C205.212 281.127 204.654 280.488 204.115 279.825C204.36 280.684 204.978 281.384 205.782 281.742ZM195 282C196.657 282 198 280.657 198 279C198 277.343 196.657 276 195 276C193.343 276 192 277.343 192 279C192 280.657 193.343 282 195 282ZM210 219C210 220.657 208.657 222 207 222C205.343 222 204 220.657 204 219C204 217.343 205.343 216 207 216C208.657 216 210 217.343 210 219ZM207 234C208.657 234 210 232.657 210 231C210 229.343 208.657 228 207 228C205.343 228 204 229.343 204 231C204 232.657 205.343 234 207 234ZM222 147C222 148.657 220.657 150 219 150C217.343 150 216 148.657 216 147C216 145.343 217.343 144 219 144C220.657 144 222 145.343 222 147ZM219 174C220.657 174 222 172.657 222 171C222 169.343 220.657 168 219 168C217.343 168 216 169.343 216 171C216 172.657 217.343 174 219 174ZM222 195C222 196.657 220.657 198 219 198C217.343 198 216 196.657 216 195C216 193.343 217.343 192 219 192C220.657 192 222 193.343 222 195ZM219 162C220.657 162 222 160.657 222 159C222 157.343 220.657 156 219 156C217.343 156 216 157.343 216 159C216 160.657 217.343 162 219 162ZM222 183C222 184.657 220.657 186 219 186C217.343 186 216 184.657 216 183C216 181.343 217.343 180 219 180C220.657 180 222 181.343 222 183ZM219 210C220.657 210 222 208.657 222 207C222 205.343 220.657 204 219 204C217.343 204 216 205.343 216 207C216 208.657 217.343 210 219 210ZM234 147C234 148.657 232.657 150 231 150C229.343 150 228 148.657 228 147C228 145.343 229.343 144 231 144C232.657 144 234 145.343 234 147ZM231 174C232.657 174 234 172.657 234 171C234 169.343 232.657 168 231 168C229.343 168 228 169.343 228 171C228 172.657 229.343 174 231 174ZM234 195C234 196.657 232.657 198 231 198C229.343 198 228 196.657 228 195C228 193.343 229.343 192 231 192C232.657 192 234 193.343 234 195ZM231 162C232.657 162 234 160.657 234 159C234 157.343 232.657 156 231 156C229.343 156 228 157.343 228 159C228 160.657 229.343 162 231 162ZM234 183C234 184.657 232.657 186 231 186C229.343 186 228 184.657 228 183C228 181.343 229.343 180 231 180C232.657 180 234 181.343 234 183ZM231 210C232.657 210 234 208.657 234 207C234 205.343 232.657 204 231 204C229.343 204 228 205.343 228 207C228 208.657 229.343 210 231 210ZM246 147C246 148.657 244.657 150 243 150C241.343 150 240 148.657 240 147C240 145.343 241.343 144 243 144C244.657 144 246 145.343 246 147ZM243 174C244.657 174 246 172.657 246 171C246 169.343 244.657 168 243 168C241.343 168 240 169.343 240 171C240 172.657 241.343 174 243 174ZM246 195C246 196.657 244.657 198 243 198C241.343 198 240 196.657 240 195C240 193.343 241.343 192 243 192C244.657 192 246 193.343 246 195ZM243 162C244.657 162 246 160.657 246 159C246 157.343 244.657 156 243 156C241.343 156 240 157.343 240 159C240 160.657 241.343 162 243 162ZM246 183C246 184.657 244.657 186 243 186C241.343 186 240 184.657 240 183C240 181.343 241.343 180 243 180C244.657 180 246 181.343 246 183ZM243 210C244.657 210 246 208.657 246 207C246 205.343 244.657 204 243 204C241.343 204 240 205.343 240 207C240 208.657 241.343 210 243 210ZM258 147C258 148.657 256.657 150 255 150C253.343 150 252 148.657 252 147C252 145.343 253.343 144 255 144C256.657 144 258 145.343 258 147ZM255 174C256.657 174 258 172.657 258 171C258 169.343 256.657 168 255 168C253.343 168 252 169.343 252 171C252 172.657 253.343 174 255 174ZM258 195C258 196.657 256.657 198 255 198C253.343 198 252 196.657 252 195C252 193.343 253.343 192 255 192C256.657 192 258 193.343 258 195ZM255 162C256.657 162 258 160.657 258 159C258 157.343 256.657 156 255 156C253.343 156 252 157.343 252 159C252 160.657 253.343 162 255 162ZM258 183C258 184.657 256.657 186 255 186C253.343 186 252 184.657 252 183C252 181.343 253.343 180 255 180C256.657 180 258 181.343 258 183ZM255 210C256.657 210 258 208.657 258 207C258 205.343 256.657 204 255 204C253.343 204 252 205.343 252 207C252 208.657 253.343 210 255 210ZM270 147C270 148.657 268.657 150 267 150C265.343 150 264 148.657 264 147C264 145.343 265.343 144 267 144C268.657 144 270 145.343 270 147ZM267 174C268.657 174 270 172.657 270 171C270 169.343 268.657 168 267 168C265.343 168 264 169.343 264 171C264 172.657 265.343 174 267 174ZM270 195C270 196.657 268.657 198 267 198C265.343 198 264 196.657 264 195C264 193.343 265.343 192 267 192C268.657 192 270 193.343 270 195ZM267 162C268.657 162 270 160.657 270 159C270 157.343 268.657 156 267 156C265.343 156 264 157.343 264 159C264 160.657 265.343 162 267 162ZM270 183C270 184.657 268.657 186 267 186C265.343 186 264 184.657 264 183C264 181.343 265.343 180 267 180C268.657 180 270 181.343 270 183ZM267 210C268.657 210 270 208.657 270 207C270 205.343 268.657 204 267 204C265.343 204 264 205.343 264 207C264 208.657 265.343 210 267 210ZM282 147C282 148.657 280.657 150 279 150C277.343 150 276 148.657 276 147C276 145.343 277.343 144 279 144C280.657 144 282 145.343 282 147ZM279 174C280.657 174 282 172.657 282 171C282 169.343 280.657 168 279 168C277.343 168 276 169.343 276 171C276 172.657 277.343 174 279 174ZM282 195C282 196.657 280.657 198 279 198C277.343 198 276 196.657 276 195C276 193.343 277.343 192 279 192C280.657 192 282 193.343 282 195ZM279 162C280.657 162 282 160.657 282 159C282 157.343 280.657 156 279 156C277.343 156 276 157.343 276 159C276 160.657 277.343 162 279 162ZM282 183C282 184.657 280.657 186 279 186C277.343 186 276 184.657 276 183C276 181.343 277.343 180 279 180C280.657 180 282 181.343 282 183ZM279 210C280.657 210 282 208.657 282 207C282 205.343 280.657 204 279 204C277.343 204 276 205.343 276 207C276 208.657 277.343 210 279 210ZM222 219C222 220.657 220.657 222 219 222C217.343 222 216 220.657 216 219C216 217.343 217.343 216 219 216C220.657 216 222 217.343 222 219ZM219 234C220.657 234 222 232.657 222 231C222 229.343 220.657 228 219 228C217.343 228 216 229.343 216 231C216 232.657 217.343 234 219 234ZM234 219C234 220.657 232.657 222 231 222C229.343 222 228 220.657 228 219C228 217.343 229.343 216 231 216C232.657 216 234 217.343 234 219ZM231 234C232.657 234 234 232.657 234 231C234 229.343 232.657 228 231 228C229.343 228 228 229.343 228 231C228 232.657 229.343 234 231 234ZM246 219C246 220.657 244.657 222 243 222C241.343 222 240 220.657 240 219C240 217.343 241.343 216 243 216C244.657 216 246 217.343 246 219ZM243 234C244.657 234 246 232.657 246 231C246 229.343 244.657 228 243 228C241.343 228 240 229.343 240 231C240 232.657 241.343 234 243 234ZM243 282C244.657 282 246 280.657 246 279C246 277.343 244.657 276 243 276C241.343 276 240 277.343 240 279C240 280.657 241.343 282 243 282ZM258 219C258 220.657 256.657 222 255 222C253.343 222 252 220.657 252 219C252 217.343 253.343 216 255 216C256.657 216 258 217.343 258 219ZM255 246C256.657 246 258 244.657 258 243C258 241.343 256.657 240 255 240C253.343 240 252 241.343 252 243C252 244.657 253.343 246 255 246ZM258 267C258 268.657 256.657 270 255 270C253.343 270 252 268.657 252 267C252 265.343 253.343 264 255 264C256.657 264 258 265.343 258 267ZM255 234C256.657 234 258 232.657 258 231C258 229.343 256.657 228 255 228C253.343 228 252 229.343 252 231C252 232.657 253.343 234 255 234ZM258 255C258 256.657 256.657 258 255 258C253.343 258 252 256.657 252 255C252 253.343 253.343 252 255 252C256.657 252 258 253.343 258 255ZM255 282C256.657 282 258 280.657 258 279C258 277.343 256.657 276 255 276C253.343 276 252 277.343 252 279C252 280.657 253.343 282 255 282ZM270 219C270 220.657 268.657 222 267 222C265.343 222 264 220.657 264 219C264 217.343 265.343 216 267 216C268.657 216 270 217.343 270 219ZM267 246C268.657 246 270 244.657 270 243C270 241.343 268.657 240 267 240C265.343 240 264 241.343 264 243C264 244.657 265.343 246 267 246ZM270 267C270 268.657 268.657 270 267 270C265.343 270 264 268.657 264 267C264 265.343 265.343 264 267 264C268.657 264 270 265.343 270 267ZM267 234C268.657 234 270 232.657 270 231C270 229.343 268.657 228 267 228C265.343 228 264 229.343 264 231C264 232.657 265.343 234 267 234ZM270 255C270 256.657 268.657 258 267 258C265.343 258 264 256.657 264 255C264 253.343 265.343 252 267 252C268.657 252 270 253.343 270 255ZM267 282C268.657 282 270 280.657 270 279C270 277.343 268.657 276 267 276C265.343 276 264 277.343 264 279C264 280.657 265.343 282 267 282ZM282 219C282 220.657 280.657 222 279 222C277.343 222 276 220.657 276 219C276 217.343 277.343 216 279 216C280.657 216 282 217.343 282 219ZM279 246C280.657 246 282 244.657 282 243C282 241.343 280.657 240 279 240C277.343 240 276 241.343 276 243C276 244.657 277.343 246 279 246ZM282 267C282 268.657 280.657 270 279 270C277.343 270 276 268.657 276 267C276 265.343 277.343 264 279 264C280.657 264 282 265.343 282 267ZM279 234C280.657 234 282 232.657 282 231C282 229.343 280.657 228 279 228C277.343 228 276 229.343 276 231C276 232.657 277.343 234 279 234ZM282 255C282 256.657 280.657 258 279 258C277.343 258 276 256.657 276 255C276 253.343 277.343 252 279 252C280.657 252 282 253.343 282 255ZM279 282C280.657 282 282 280.657 282 279C282 277.343 280.657 276 279 276C277.343 276 276 277.343 276 279C276 280.657 277.343 282 279 282Z" fill="#3867D6"/>
<g opacity="0.1">
<circle cx="3" cy="3" r="3" fill="#3867D6"/>
<circle cx="3" cy="27" r="3" fill="#3867D6"/>
<circle cx="3" cy="51" r="3" fill="#3867D6"/>
<circle cx="3" cy="15" r="3" fill="#3867D6"/>
<circle cx="3" cy="39" r="3" fill="#3867D6"/>
<circle cx="3" cy="63" r="3" fill="#3867D6"/>
<circle cx="15" cy="3" r="3" fill="#3867D6"/>
<circle cx="15" cy="27" r="3" fill="#3867D6"/>
<circle cx="15" cy="51" r="3" fill="#3867D6"/>
<circle cx="15" cy="15" r="3" fill="#3867D6"/>
<circle cx="15" cy="39" r="3" fill="#3867D6"/>
<circle cx="15" cy="63" r="3" fill="#3867D6"/>
<circle cx="27" cy="3" r="3" fill="#3867D6"/>
<circle cx="27" cy="27" r="3" fill="#3867D6"/>
<circle cx="27" cy="51" r="3" fill="#3867D6"/>
<circle cx="27" cy="15" r="3" fill="#3867D6"/>
<circle cx="27" cy="39" r="3" fill="#3867D6"/>
<circle cx="27" cy="63" r="3" fill="#3867D6"/>
<circle cx="39" cy="3" r="3" fill="#3867D6"/>
<circle cx="39" cy="27" r="3" fill="#3867D6"/>
<circle cx="39" cy="51" r="3" fill="#3867D6"/>
<circle cx="39" cy="15" r="3" fill="#3867D6"/>
<circle cx="39" cy="39" r="3" fill="#3867D6"/>
<circle cx="39" cy="63" r="3" fill="#3867D6"/>
<circle cx="51" cy="3" r="3" fill="#3867D6"/>
<circle cx="51" cy="27" r="3" fill="#3867D6"/>
<circle cx="51" cy="51" r="3" fill="#3867D6"/>
<circle cx="51" cy="15" r="3" fill="#3867D6"/>
<circle cx="51" cy="39" r="3" fill="#3867D6"/>
<circle cx="51" cy="63" r="3" fill="#3867D6"/>
<circle cx="63" cy="3" r="3" fill="#3867D6"/>
<circle cx="63" cy="27" r="3" fill="#3867D6"/>
<circle cx="63" cy="51" r="3" fill="#3867D6"/>
<circle cx="63" cy="15" r="3" fill="#3867D6"/>
<circle cx="63" cy="39" r="3" fill="#3867D6"/>
<circle cx="63" cy="63" r="3" fill="#3867D6"/>
</g>
<g opacity="0.1">
<circle cx="3" cy="75" r="3" fill="#3867D6"/>
<circle cx="3" cy="99" r="3" fill="#3867D6"/>
<circle cx="3" cy="123" r="3" fill="#3867D6"/>
<circle cx="3" cy="87" r="3" fill="#3867D6"/>
<circle cx="3" cy="111" r="3" fill="#3867D6"/>
<circle cx="3" cy="135" r="3" fill="#3867D6"/>
<circle cx="15" cy="75" r="3" fill="#3867D6"/>
<circle cx="15" cy="99" r="3" fill="#3867D6"/>
<circle cx="15" cy="123" r="3" fill="#3867D6"/>
<circle cx="15" cy="87" r="3" fill="#3867D6"/>
<circle cx="15" cy="111" r="3" fill="#3867D6"/>
<circle cx="15" cy="135" r="3" fill="#3867D6"/>
<circle cx="27" cy="75" r="3" fill="#3867D6"/>
<circle cx="27" cy="99" r="3" fill="#3867D6"/>
<circle cx="27" cy="123" r="3" fill="#3867D6"/>
<circle cx="27" cy="87" r="3" fill="#3867D6"/>
<circle cx="27" cy="111" r="3" fill="#3867D6"/>
<circle cx="27" cy="135" r="3" fill="#3867D6"/>
<circle cx="39" cy="75" r="3" fill="#3867D6"/>
<circle cx="39" cy="99" r="3" fill="#3867D6"/>
<circle cx="39" cy="123" r="3" fill="#3867D6"/>
<circle cx="39" cy="87" r="3" fill="#3867D6"/>
<circle cx="39" cy="111" r="3" fill="#3867D6"/>
<circle cx="39" cy="135" r="3" fill="#3867D6"/>
<circle cx="51" cy="75" r="3" fill="#3867D6"/>
<circle cx="51" cy="99" r="3" fill="#3867D6"/>
<circle cx="51" cy="123" r="3" fill="#3867D6"/>
<circle cx="51" cy="87" r="3" fill="#3867D6"/>
<circle cx="51" cy="111" r="3" fill="#3867D6"/>
<circle cx="51" cy="135" r="3" fill="#3867D6"/>
<circle cx="63" cy="75" r="3" fill="#3867D6"/>
<circle cx="63" cy="99" r="3" fill="#3867D6"/>
<circle cx="63" cy="123" r="3" fill="#3867D6"/>
<circle cx="63" cy="87" r="3" fill="#3867D6"/>
<circle cx="63" cy="111" r="3" fill="#3867D6"/>
<circle cx="63" cy="135" r="3" fill="#3867D6"/>
</g>
<g opacity="0.1">
<circle cx="75" cy="3" r="3" fill="#3867D6"/>
<circle cx="75" cy="27" r="3" fill="#3867D6"/>
<circle cx="75" cy="51" r="3" fill="#3867D6"/>
<circle cx="75" cy="15" r="3" fill="#3867D6"/>
<circle cx="75" cy="39" r="3" fill="#3867D6"/>
<circle cx="75" cy="63" r="3" fill="#3867D6"/>
<circle cx="87" cy="3" r="3" fill="#3867D6"/>
<circle cx="87" cy="27" r="3" fill="#3867D6"/>
<circle cx="87" cy="51" r="3" fill="#3867D6"/>
<circle cx="87" cy="15" r="3" fill="#3867D6"/>
<circle cx="87" cy="39" r="3" fill="#3867D6"/>
<circle cx="87" cy="63" r="3" fill="#3867D6"/>
<circle cx="99" cy="3" r="3" fill="#3867D6"/>
<circle cx="99" cy="27" r="3" fill="#3867D6"/>
<circle cx="99" cy="51" r="3" fill="#3867D6"/>
<circle cx="99" cy="15" r="3" fill="#3867D6"/>
<circle cx="99" cy="39" r="3" fill="#3867D6"/>
<circle cx="99" cy="63" r="3" fill="#3867D6"/>
<circle cx="111" cy="3" r="3" fill="#3867D6"/>
<circle cx="111" cy="27" r="3" fill="#3867D6"/>
<circle cx="111" cy="51" r="3" fill="#3867D6"/>
<circle cx="111" cy="15" r="3" fill="#3867D6"/>
<circle cx="111" cy="39" r="3" fill="#3867D6"/>
<circle cx="111" cy="63" r="3" fill="#3867D6"/>
<circle cx="123" cy="3" r="3" fill="#3867D6"/>
<circle cx="123" cy="27" r="3" fill="#3867D6"/>
<circle cx="123" cy="51" r="3" fill="#3867D6"/>
<circle cx="123" cy="15" r="3" fill="#3867D6"/>
<circle cx="123" cy="39" r="3" fill="#3867D6"/>
<circle cx="123" cy="63" r="3" fill="#3867D6"/>
<circle cx="135" cy="3" r="3" fill="#3867D6"/>
<circle cx="135" cy="27" r="3" fill="#3867D6"/>
<circle cx="135" cy="51" r="3" fill="#3867D6"/>
<circle cx="135" cy="15" r="3" fill="#3867D6"/>
<circle cx="135" cy="39" r="3" fill="#3867D6"/>
<circle cx="135" cy="63" r="3" fill="#3867D6"/>
</g>
<g opacity="0.1">
<circle cx="75" cy="75" r="3" fill="#3867D6"/>
<circle cx="75" cy="99" r="3" fill="#3867D6"/>
<circle cx="75" cy="123" r="3" fill="#3867D6"/>
<circle cx="75" cy="87" r="3" fill="#3867D6"/>
<circle cx="75" cy="111" r="3" fill="#3867D6"/>
<circle cx="75" cy="135" r="3" fill="#3867D6"/>
<circle cx="87" cy="75" r="3" fill="#3867D6"/>
<circle cx="87" cy="99" r="3" fill="#3867D6"/>
<circle cx="87" cy="123" r="3" fill="#3867D6"/>
<circle cx="87" cy="87" r="3" fill="#3867D6"/>
<circle cx="87" cy="111" r="3" fill="#3867D6"/>
<circle cx="87" cy="135" r="3" fill="#3867D6"/>
<circle cx="99" cy="75" r="3" fill="#3867D6"/>
<circle cx="99" cy="99" r="3" fill="#3867D6"/>
<circle cx="99" cy="123" r="3" fill="#3867D6"/>
<circle cx="99" cy="87" r="3" fill="#3867D6"/>
<circle cx="99" cy="111" r="3" fill="#3867D6"/>
<circle cx="99" cy="135" r="3" fill="#3867D6"/>
<circle cx="111" cy="75" r="3" fill="#3867D6"/>
<circle cx="111" cy="99" r="3" fill="#3867D6"/>
<circle cx="111" cy="123" r="3" fill="#3867D6"/>
<circle cx="111" cy="87" r="3" fill="#3867D6"/>
<circle cx="111" cy="111" r="3" fill="#3867D6"/>
<circle cx="111" cy="135" r="3" fill="#3867D6"/>
<circle cx="123" cy="75" r="3" fill="#3867D6"/>
<circle cx="123" cy="99" r="3" fill="#3867D6"/>
<circle cx="123" cy="123" r="3" fill="#3867D6"/>
<circle cx="123" cy="87" r="3" fill="#3867D6"/>
<circle cx="123" cy="111" r="3" fill="#3867D6"/>
<circle cx="123" cy="135" r="3" fill="#3867D6"/>
<circle cx="135" cy="75" r="3" fill="#3867D6"/>
<circle cx="135" cy="99" r="3" fill="#3867D6"/>
<circle cx="135" cy="123" r="3" fill="#3867D6"/>
<circle cx="135" cy="87" r="3" fill="#3867D6"/>
<circle cx="135" cy="111" r="3" fill="#3867D6"/>
<circle cx="135" cy="135" r="3" fill="#3867D6"/>
</g>
<g opacity="0.1">
<circle cx="147" cy="3" r="3" fill="#3867D6"/>
<circle cx="147" cy="27" r="3" fill="#3867D6"/>
<circle cx="147" cy="51" r="3" fill="#3867D6"/>
<circle cx="147" cy="15" r="3" fill="#3867D6"/>
<circle cx="147" cy="39" r="3" fill="#3867D6"/>
<circle cx="147" cy="63" r="3" fill="#3867D6"/>
<circle cx="159" cy="3" r="3" fill="#3867D6"/>
<circle cx="159" cy="27" r="3" fill="#3867D6"/>
<circle cx="159" cy="51" r="3" fill="#3867D6"/>
<circle cx="159" cy="15" r="3" fill="#3867D6"/>
<circle cx="159" cy="39" r="3" fill="#3867D6"/>
<circle cx="159" cy="63" r="3" fill="#3867D6"/>
<circle cx="171" cy="3" r="3" fill="#3867D6"/>
<circle cx="171" cy="27" r="3" fill="#3867D6"/>
<circle cx="171" cy="51" r="3" fill="#3867D6"/>
<circle cx="171" cy="15" r="3" fill="#3867D6"/>
<circle cx="171" cy="39" r="3" fill="#3867D6"/>
<circle cx="171" cy="63" r="3" fill="#3867D6"/>
<circle cx="183" cy="3" r="3" fill="#3867D6"/>
<circle cx="183" cy="27" r="3" fill="#3867D6"/>
<circle cx="183" cy="51" r="3" fill="#3867D6"/>
<circle cx="183" cy="15" r="3" fill="#3867D6"/>
<circle cx="183" cy="39" r="3" fill="#3867D6"/>
<circle cx="183" cy="63" r="3" fill="#3867D6"/>
<circle cx="195" cy="3" r="3" fill="#3867D6"/>
<circle cx="195" cy="27" r="3" fill="#3867D6"/>
<circle cx="195" cy="51" r="3" fill="#3867D6"/>
<circle cx="195" cy="15" r="3" fill="#3867D6"/>
<circle cx="195" cy="39" r="3" fill="#3867D6"/>
<circle cx="195" cy="63" r="3" fill="#3867D6"/>
<circle cx="207" cy="3" r="3" fill="#3867D6"/>
<circle cx="207" cy="27" r="3" fill="#3867D6"/>
<circle cx="207" cy="51" r="3" fill="#3867D6"/>
<circle cx="207" cy="15" r="3" fill="#3867D6"/>
<circle cx="207" cy="39" r="3" fill="#3867D6"/>
<circle cx="207" cy="63" r="3" fill="#3867D6"/>
</g>
<g opacity="0.1">
<circle cx="147" cy="75" r="3" fill="#3867D6"/>
<circle cx="147" cy="99" r="3" fill="#3867D6"/>
<circle cx="147" cy="123" r="3" fill="#3867D6"/>
<circle cx="147" cy="87" r="3" fill="#3867D6"/>
<circle cx="147" cy="111" r="3" fill="#3867D6"/>
<circle cx="147" cy="135" r="3" fill="#3867D6"/>
<circle cx="159" cy="75" r="3" fill="#3867D6"/>
<circle cx="159" cy="99" r="3" fill="#3867D6"/>
<circle cx="159" cy="123" r="3" fill="#3867D6"/>
<circle cx="159" cy="87" r="3" fill="#3867D6"/>
<circle cx="159" cy="111" r="3" fill="#3867D6"/>
<circle cx="159" cy="135" r="3" fill="#3867D6"/>
<circle cx="171" cy="75" r="3" fill="#3867D6"/>
<circle cx="171" cy="99" r="3" fill="#3867D6"/>
<circle cx="171" cy="123" r="3" fill="#3867D6"/>
<circle cx="171" cy="87" r="3" fill="#3867D6"/>
<circle cx="171" cy="111" r="3" fill="#3867D6"/>
<circle cx="171" cy="135" r="3" fill="#3867D6"/>
<circle cx="183" cy="75" r="3" fill="#3867D6"/>
<circle cx="183" cy="99" r="3" fill="#3867D6"/>
<circle cx="183" cy="123" r="3" fill="#3867D6"/>
<circle cx="183" cy="87" r="3" fill="#3867D6"/>
<circle cx="183" cy="111" r="3" fill="#3867D6"/>
<circle cx="183" cy="135" r="3" fill="#3867D6"/>
<circle cx="195" cy="75" r="3" fill="#3867D6"/>
<circle cx="195" cy="99" r="3" fill="#3867D6"/>
<circle cx="195" cy="123" r="3" fill="#3867D6"/>
<circle cx="195" cy="87" r="3" fill="#3867D6"/>
<circle cx="195" cy="111" r="3" fill="#3867D6"/>
<circle cx="195" cy="135" r="3" fill="#3867D6"/>
<circle cx="207" cy="75" r="3" fill="#3867D6"/>
<circle cx="207" cy="99" r="3" fill="#3867D6"/>
<circle cx="207" cy="123" r="3" fill="#3867D6"/>
<circle cx="207" cy="87" r="3" fill="#3867D6"/>
<circle cx="207" cy="111" r="3" fill="#3867D6"/>
<circle cx="207" cy="135" r="3" fill="#3867D6"/>
</g>
<g opacity="0.1">
<circle cx="219" cy="3" r="3" fill="#3867D6"/>
<circle cx="219" cy="27" r="3" fill="#3867D6"/>
<circle cx="219" cy="51" r="3" fill="#3867D6"/>
<circle cx="219" cy="15" r="3" fill="#3867D6"/>
<circle cx="219" cy="39" r="3" fill="#3867D6"/>
<circle cx="219" cy="63" r="3" fill="#3867D6"/>
<circle cx="231" cy="3" r="3" fill="#3867D6"/>
<circle cx="231" cy="27" r="3" fill="#3867D6"/>
<circle cx="231" cy="51" r="3" fill="#3867D6"/>
<circle cx="231" cy="15" r="3" fill="#3867D6"/>
<circle cx="231" cy="39" r="3" fill="#3867D6"/>
<circle cx="231" cy="63" r="3" fill="#3867D6"/>
<circle cx="243" cy="3" r="3" fill="#3867D6"/>
<circle cx="243" cy="27" r="3" fill="#3867D6"/>
<circle cx="243" cy="51" r="3" fill="#3867D6"/>
<circle cx="243" cy="15" r="3" fill="#3867D6"/>
<circle cx="243" cy="39" r="3" fill="#3867D6"/>
<circle cx="243" cy="63" r="3" fill="#3867D6"/>
<circle cx="255" cy="3" r="3" fill="#3867D6"/>
<circle cx="255" cy="27" r="3" fill="#3867D6"/>
<circle cx="255" cy="51" r="3" fill="#3867D6"/>
<circle cx="255" cy="15" r="3" fill="#3867D6"/>
<circle cx="255" cy="39" r="3" fill="#3867D6"/>
<circle cx="255" cy="63" r="3" fill="#3867D6"/>
<circle cx="267" cy="3" r="3" fill="#3867D6"/>
<circle cx="267" cy="27" r="3" fill="#3867D6"/>
<circle cx="267" cy="51" r="3" fill="#3867D6"/>
<circle cx="267" cy="15" r="3" fill="#3867D6"/>
<circle cx="267" cy="39" r="3" fill="#3867D6"/>
<circle cx="267" cy="63" r="3" fill="#3867D6"/>
<circle cx="279" cy="3" r="3" fill="#3867D6"/>
<circle cx="279" cy="27" r="3" fill="#3867D6"/>
<circle cx="279" cy="51" r="3" fill="#3867D6"/>
<circle cx="279" cy="15" r="3" fill="#3867D6"/>
<circle cx="279" cy="39" r="3" fill="#3867D6"/>
<circle cx="279" cy="63" r="3" fill="#3867D6"/>
</g>
<g opacity="0.1">
<circle cx="219" cy="75" r="3" fill="#3867D6"/>
<circle cx="219" cy="99" r="3" fill="#3867D6"/>
<circle cx="219" cy="123" r="3" fill="#3867D6"/>
<circle cx="219" cy="87" r="3" fill="#3867D6"/>
<circle cx="219" cy="111" r="3" fill="#3867D6"/>
<circle cx="219" cy="135" r="3" fill="#3867D6"/>
<circle cx="231" cy="75" r="3" fill="#3867D6"/>
<circle cx="231" cy="99" r="3" fill="#3867D6"/>
<circle cx="231" cy="123" r="3" fill="#3867D6"/>
<circle cx="231" cy="87" r="3" fill="#3867D6"/>
<circle cx="231" cy="111" r="3" fill="#3867D6"/>
<circle cx="231" cy="135" r="3" fill="#3867D6"/>
<circle cx="243" cy="75" r="3" fill="#3867D6"/>
<circle cx="243" cy="99" r="3" fill="#3867D6"/>
<circle cx="243" cy="123" r="3" fill="#3867D6"/>
<circle cx="243" cy="87" r="3" fill="#3867D6"/>
<circle cx="243" cy="111" r="3" fill="#3867D6"/>
<circle cx="243" cy="135" r="3" fill="#3867D6"/>
<circle cx="255" cy="75" r="3" fill="#3867D6"/>
<circle cx="255" cy="99" r="3" fill="#3867D6"/>
<circle cx="255" cy="123" r="3" fill="#3867D6"/>
<circle cx="255" cy="87" r="3" fill="#3867D6"/>
<circle cx="255" cy="111" r="3" fill="#3867D6"/>
<circle cx="255" cy="135" r="3" fill="#3867D6"/>
<circle cx="267" cy="75" r="3" fill="#3867D6"/>
<circle cx="267" cy="99" r="3" fill="#3867D6"/>
<circle cx="267" cy="123" r="3" fill="#3867D6"/>
<circle cx="267" cy="87" r="3" fill="#3867D6"/>
<circle cx="267" cy="111" r="3" fill="#3867D6"/>
<circle cx="267" cy="135" r="3" fill="#3867D6"/>
<circle cx="279" cy="75" r="3" fill="#3867D6"/>
<circle cx="279" cy="99" r="3" fill="#3867D6"/>
<circle cx="279" cy="123" r="3" fill="#3867D6"/>
<circle cx="279" cy="87" r="3" fill="#3867D6"/>
<circle cx="279" cy="111" r="3" fill="#3867D6"/>
<circle cx="279" cy="135" r="3" fill="#3867D6"/>
</g>
<g opacity="0.1">
<circle cx="387" cy="459" r="3" fill="#3867D6"/>
<circle cx="387" cy="483" r="3" fill="#3867D6"/>
<circle cx="387" cy="507" r="3" fill="#3867D6"/>
<circle cx="387" cy="471" r="3" fill="#3867D6"/>
<circle cx="387" cy="495" r="3" fill="#3867D6"/>
<circle cx="387" cy="519" r="3" fill="#3867D6"/>
<circle cx="399" cy="459" r="3" fill="#3867D6"/>
<circle cx="399" cy="483" r="3" fill="#3867D6"/>
<circle cx="399" cy="507" r="3" fill="#3867D6"/>
<circle cx="399" cy="471" r="3" fill="#3867D6"/>
<circle cx="399" cy="495" r="3" fill="#3867D6"/>
<circle cx="399" cy="519" r="3" fill="#3867D6"/>
<circle cx="411" cy="459" r="3" fill="#3867D6"/>
<circle cx="411" cy="483" r="3" fill="#3867D6"/>
<circle cx="411" cy="507" r="3" fill="#3867D6"/>
<circle cx="411" cy="471" r="3" fill="#3867D6"/>
<circle cx="411" cy="495" r="3" fill="#3867D6"/>
<circle cx="411" cy="519" r="3" fill="#3867D6"/>
<circle cx="423" cy="459" r="3" fill="#3867D6"/>
<circle cx="423" cy="483" r="3" fill="#3867D6"/>
<circle cx="423" cy="507" r="3" fill="#3867D6"/>
<circle cx="423" cy="471" r="3" fill="#3867D6"/>
<circle cx="423" cy="495" r="3" fill="#3867D6"/>
<circle cx="423" cy="519" r="3" fill="#3867D6"/>
<circle cx="435" cy="459" r="3" fill="#3867D6"/>
<circle cx="435" cy="483" r="3" fill="#3867D6"/>
<circle cx="435" cy="507" r="3" fill="#3867D6"/>
<circle cx="435" cy="471" r="3" fill="#3867D6"/>
<circle cx="435" cy="495" r="3" fill="#3867D6"/>
<circle cx="435" cy="519" r="3" fill="#3867D6"/>
<circle cx="447" cy="459" r="3" fill="#3867D6"/>
<circle cx="447" cy="483" r="3" fill="#3867D6"/>
<circle cx="447" cy="507" r="3" fill="#3867D6"/>
<circle cx="447" cy="471" r="3" fill="#3867D6"/>
<circle cx="447" cy="495" r="3" fill="#3867D6"/>
<circle cx="447" cy="519" r="3" fill="#3867D6"/>
</g>
<path fill-rule="evenodd" clip-rule="evenodd" d="M93 269C93.669 269 94.3358 268.99 95 268.97L95 269C95 317.784 121.871 360.292 161.619 382.53C161.428 383.188 161.246 383.85 161.075 384.516C120.479 362.003 93 318.71 93 269ZM288.925 384.516C329.521 362.003 357 318.71 357 269C356.331 269 355.664 268.99 355 268.97V269C355 317.784 328.129 360.292 288.381 382.53C288.572 383.188 288.754 383.85 288.925 384.516ZM225 139C195.723 139 168.707 148.678 146.976 165.009C146.591 164.463 146.199 163.924 145.798 163.391C167.86 146.82 195.283 137 225 137C254.717 137 282.14 146.82 304.202 163.392C303.801 163.924 303.409 164.463 303.024 165.009C281.293 148.678 254.277 139 225 139Z" fill="#3867D6"/>
<path opacity="0.2" d="M221 292C221 292 243 281 243 264.5V245.25L221 237L199 245.25V264.5C199 281 221 292 221 292Z" fill="#3867D6" stroke="#3867D6" stroke-width="2" stroke-linecap="round" stroke-linejoin="round"/>
<path d="M225 296.5C225 296.5 247 285.5 247 269V249.75L225 241.5L203 249.75V269C203 285.5 225 296.5 225 296.5Z" stroke="#3867D6" stroke-width="2" stroke-linecap="round" stroke-linejoin="round"/>
<path opacity="0.2" d="M86 218C98.1503 218 108 208.15 108 196C108 183.85 98.1503 174 86 174C73.8497 174 64 183.85 64 196C64 208.15 73.8497 218 86 218Z" fill="#3867D6"/>
<path d="M90.25 222.25C102.4 222.25 112.25 212.4 112.25 200.25C112.25 188.1 102.4 178.25 90.25 178.25C78.0997 178.25 68.25 188.1 68.25 200.25C68.25 212.4 78.0997 222.25 90.25 222.25Z" stroke="#3867D6" stroke-width="2" stroke-linecap="round" stroke-linejoin="round"/>
<path d="M117.75 227.75L105.788 215.788" stroke="#3867D6" stroke-width="2" stroke-linecap="round" stroke-linejoin="round"/>
<path opacity="0.2" d="M353.5 171.5L326 185.25L353.5 199L381 185.25L353.5 171.5Z" fill="#3867D6"/>
<path d="M357 175.5L329.5 189.25L357 203L384.5 189.25L357 175.5Z" stroke="#3867D6" stroke-width="2" stroke-linecap="round" stroke-linejoin="round"/>
<path d="M329.5 216.75L357 230.5L384.5 216.75" stroke="#3867D6" stroke-width="2" stroke-linecap="round" stroke-linejoin="round"/>
<path d="M329.5 203L357 216.75L384.5 203" stroke="#3867D6" stroke-width="2" stroke-linecap="round" stroke-linejoin="round"/>
<path opacity="0.2" d="M226.5 371.5H204.5C203.041 371.5 201.642 372.079 200.611 373.111C199.579 374.142 199 375.541 199 377V421C199 422.459 199.579 423.858 200.611 424.889C201.642 425.921 203.041 426.5 204.5 426.5H237.5C238.959 426.5 240.358 425.921 241.389 424.889C242.421 423.858 243 422.459 243 421V388L226.5 371.5Z" fill="#3867D6" stroke="#3867D6" stroke-width="2" stroke-linecap="round" stroke-linejoin="round"/>
<path d="M230.5 375.5H208.5C207.041 375.5 205.642 376.079 204.611 377.111C203.579 378.142 203 379.541 203 381V425C203 426.459 203.579 427.858 204.611 428.889C205.642 429.921 207.041 430.5 208.5 430.5H241.5C242.959 430.5 244.358 429.921 245.389 428.889C246.421 427.858 247 426.459 247 425V392L230.5 375.5Z" stroke="#3867D6" stroke-width="2" stroke-linecap="round" stroke-linejoin="round"/>
<path d="M230.5 375.5V392H247" stroke="#3867D6" stroke-width="2" stroke-linecap="round" stroke-linejoin="round"/>
<path d="M236 405.75H214" stroke="#3867D6" stroke-width="2" stroke-linecap="round" stroke-linejoin="round"/>
<path d="M236 416.75H214" stroke="#3867D6" stroke-width="2" stroke-linecap="round" stroke-linejoin="round"/>
<path d="M219.5 394.75H216.75H214" stroke="#3867D6" stroke-width="2" stroke-linecap="round" stroke-linejoin="round"/>
<path opacity="0.1" d="M333 52C334.105 52 335 52.8954 335 54C335 56.2091 336.791 58 339 58C340.105 58 341 58.8954 341 60C341 61.1046 340.105 62 339 62C336.791 62 335 63.7909 335 66C335 67.1046 334.105 68 333 68C331.895 68 331 67.1046 331 66C331 63.7909 329.209 62 327 62C325.895 62 325 61.1046 325 60C325 58.8954 325.895 58 327 58C329.209 58 331 56.2091 331 54C331 52.8954 331.895 52 333 52Z" stroke="#3867D6" stroke-width="2"/>
<path opacity="0.1" d="M9 505C10.1046 505 11 505.895 11 507C11 509.209 12.7909 511 15 511C16.1046 511 17 511.895 17 513C17 514.105 16.1046 515 15 515C12.7909 515 11 516.791 11 519C11 520.105 10.1046 521 9 521C7.89542 521 7 520.105 7 519C7 516.791 5.20914 515 3 515C1.89542 515 1 514.105 1 513C1 511.895 1.89542 511 3 511C5.20914 511 7 509.209 7 507C7 505.895 7.89542 505 9 505Z" stroke="#3867D6" stroke-width="2"/>
<circle opacity="0.1" cx="423" cy="9" r="8" stroke="#3867D6" stroke-width="2"/>
<circle opacity="0.1" cx="117" cy="465" r="8" stroke="#3867D6" stroke-width="2"/>
</svg>
