<svg width="40" height="40" viewBox="0 0 40 40" fill="none" xmlns="http://www.w3.org/2000/svg">
<g opacity="0.2">
<path d="M28 2.66666L25.3333 5.33332L28 2.66666ZM15.1867 15.48C15.8751 16.1593 16.4224 16.968 16.797 17.8597C17.1716 18.7514 17.3661 19.7083 17.3694 20.6755C17.3726 21.6427 17.1845 22.6009 16.8159 23.4951C16.4473 24.3892 15.9054 25.2016 15.2215 25.8855C14.5376 26.5694 13.7252 27.1113 12.8311 27.4799C11.9369 27.8485 10.9787 28.0366 10.0115 28.0334C9.04435 28.0301 8.08739 27.8356 7.19572 27.461C6.30405 27.0864 5.49529 26.5391 4.816 25.8507C3.48017 24.4676 2.74102 22.6152 2.75772 20.6924C2.77443 18.7696 3.54567 16.9303 4.90533 15.5707C6.26499 14.211 8.10428 13.4398 10.0271 13.423C11.9498 13.4063 13.8023 14.1455 15.1853 15.4813L15.1867 15.48ZM15.1867 15.48L20.6667 9.99999L15.1867 15.48ZM20.6667 9.99999L24.6667 14L29.3333 9.33332L25.3333 5.33332L20.6667 9.99999ZM20.6667 9.99999L25.3333 5.33332L20.6667 9.99999Z" fill="#3867D6"/>
<path d="M20.6667 9.99999L25.3333 5.33332M28 2.66666L25.3333 5.33332L28 2.66666ZM15.1867 15.48C15.8751 16.1593 16.4224 16.968 16.797 17.8597C17.1716 18.7514 17.3661 19.7083 17.3694 20.6755C17.3726 21.6427 17.1845 22.6009 16.8159 23.4951C16.4473 24.3892 15.9054 25.2016 15.2215 25.8855C14.5376 26.5694 13.7252 27.1113 12.8311 27.4799C11.9369 27.8485 10.9787 28.0366 10.0115 28.0334C9.04435 28.0301 8.08739 27.8356 7.19572 27.461C6.30405 27.0864 5.49529 26.5391 4.816 25.8507C3.48017 24.4676 2.74102 22.6152 2.75772 20.6924C2.77443 18.7696 3.54567 16.9303 4.90533 15.5707C6.26499 14.211 8.10428 13.4398 10.0271 13.423C11.9498 13.4063 13.8023 14.1455 15.1853 15.4813L15.1867 15.48ZM15.1867 15.48L20.6667 9.99999L15.1867 15.48ZM20.6667 9.99999L24.6667 14L29.3333 9.33332L25.3333 5.33332L20.6667 9.99999Z" stroke="#3867D6" stroke-width="2" stroke-linecap="round" stroke-linejoin="round"/>
</g>
<path d="M24.6667 14L29.3333 9.33332M32 6.66666L29.3333 9.33332L32 6.66666ZM19.1867 19.48C19.8751 20.1593 20.4224 20.968 20.797 21.8597C21.1716 22.7514 21.3661 23.7083 21.3694 24.6755C21.3726 25.6427 21.1845 26.6009 20.8159 27.4951C20.4473 28.3892 19.9054 29.2016 19.2215 29.8855C18.5376 30.5694 17.7252 31.1113 16.8311 31.4799C15.9369 31.8485 14.9787 32.0366 14.0115 32.0334C13.0444 32.0301 12.0874 31.8356 11.1957 31.461C10.3041 31.0864 9.49529 30.5391 8.816 29.8507C7.48017 28.4676 6.74102 26.6152 6.75772 24.6924C6.77443 22.7696 7.54567 20.9303 8.90533 19.5707C10.265 18.211 12.1043 17.4398 14.0271 17.423C15.9498 17.4063 17.8023 18.1455 19.1853 19.4813L19.1867 19.48ZM19.1867 19.48L24.6667 14L19.1867 19.48ZM24.6667 14L28.6667 18L33.3333 13.3333L29.3333 9.33332L24.6667 14Z" stroke="#3867D6" stroke-width="2" stroke-linecap="round" stroke-linejoin="round"/>
</svg>
