<svg width="66" height="66" viewBox="0 0 66 66" fill="none" xmlns="http://www.w3.org/2000/svg">
<circle cx="3" cy="3" r="3" fill="#3867D6"/>
<circle cx="3" cy="27" r="3" fill="#3867D6"/>
<circle cx="3" cy="51" r="3" fill="#3867D6"/>
<circle cx="3" cy="15" r="3" fill="#3867D6"/>
<circle cx="3" cy="39" r="3" fill="#3867D6"/>
<circle cx="3" cy="63" r="3" fill="#3867D6"/>
<circle cx="15" cy="3" r="3" fill="#3867D6"/>
<circle cx="15" cy="27" r="3" fill="#3867D6"/>
<circle cx="15" cy="51" r="3" fill="#3867D6"/>
<circle cx="15" cy="15" r="3" fill="#3867D6"/>
<circle cx="15" cy="39" r="3" fill="#3867D6"/>
<circle cx="15" cy="63" r="3" fill="#3867D6"/>
<circle cx="27" cy="3" r="3" fill="#3867D6"/>
<circle cx="27" cy="27" r="3" fill="#3867D6"/>
<circle cx="27" cy="51" r="3" fill="#3867D6"/>
<circle cx="27" cy="15" r="3" fill="#3867D6"/>
<circle cx="27" cy="39" r="3" fill="#3867D6"/>
<circle cx="27" cy="63" r="3" fill="#3867D6"/>
<circle cx="39" cy="3" r="3" fill="#3867D6"/>
<circle cx="39" cy="27" r="3" fill="#3867D6"/>
<circle cx="39" cy="51" r="3" fill="#3867D6"/>
<circle cx="39" cy="15" r="3" fill="#3867D6"/>
<circle cx="39" cy="39" r="3" fill="#3867D6"/>
<circle cx="39" cy="63" r="3" fill="#3867D6"/>
<circle cx="51" cy="3" r="3" fill="#3867D6"/>
<circle cx="51" cy="27" r="3" fill="#3867D6"/>
<circle cx="51" cy="51" r="3" fill="#3867D6"/>
<circle cx="51" cy="15" r="3" fill="#3867D6"/>
<circle cx="51" cy="39" r="3" fill="#3867D6"/>
<circle cx="51" cy="63" r="3" fill="#3867D6"/>
<circle cx="63" cy="3" r="3" fill="#3867D6"/>
<circle cx="63" cy="27" r="3" fill="#3867D6"/>
<circle cx="63" cy="51" r="3" fill="#3867D6"/>
<circle cx="63" cy="15" r="3" fill="#3867D6"/>
<circle cx="63" cy="39" r="3" fill="#3867D6"/>
<circle cx="63" cy="63" r="3" fill="#3867D6"/>
</svg>
