<svg width="138" height="138" viewBox="0 0 138 138" fill="none" xmlns="http://www.w3.org/2000/svg">
<circle cx="3" cy="3" r="3" fill="#3867D6"/>
<circle cx="3" cy="27" r="3" fill="#3867D6"/>
<circle cx="3" cy="51" r="3" fill="#3867D6"/>
<circle cx="3" cy="15" r="3" fill="#3867D6"/>
<circle cx="3" cy="39" r="3" fill="#3867D6"/>
<circle cx="3" cy="63" r="3" fill="#3867D6"/>
<circle cx="15" cy="3" r="3" fill="#3867D6"/>
<circle cx="15" cy="27" r="3" fill="#3867D6"/>
<circle cx="15" cy="51" r="3" fill="#3867D6"/>
<circle cx="15" cy="15" r="3" fill="#3867D6"/>
<circle cx="15" cy="39" r="3" fill="#3867D6"/>
<circle cx="15" cy="63" r="3" fill="#3867D6"/>
<circle cx="27" cy="3" r="3" fill="#3867D6"/>
<circle cx="27" cy="27" r="3" fill="#3867D6"/>
<circle cx="27" cy="51" r="3" fill="#3867D6"/>
<circle cx="27" cy="15" r="3" fill="#3867D6"/>
<circle cx="27" cy="39" r="3" fill="#3867D6"/>
<circle cx="27" cy="63" r="3" fill="#3867D6"/>
<circle cx="39" cy="3" r="3" fill="#3867D6"/>
<circle cx="39" cy="27" r="3" fill="#3867D6"/>
<circle cx="39" cy="51" r="3" fill="#3867D6"/>
<circle cx="39" cy="15" r="3" fill="#3867D6"/>
<circle cx="39" cy="39" r="3" fill="#3867D6"/>
<circle cx="39" cy="63" r="3" fill="#3867D6"/>
<circle cx="51" cy="3" r="3" fill="#3867D6"/>
<circle cx="51" cy="27" r="3" fill="#3867D6"/>
<circle cx="51" cy="51" r="3" fill="#3867D6"/>
<circle cx="51" cy="15" r="3" fill="#3867D6"/>
<circle cx="51" cy="39" r="3" fill="#3867D6"/>
<circle cx="51" cy="63" r="3" fill="#3867D6"/>
<circle cx="63" cy="3" r="3" fill="#3867D6"/>
<circle cx="63" cy="27" r="3" fill="#3867D6"/>
<circle cx="63" cy="51" r="3" fill="#3867D6"/>
<circle cx="63" cy="15" r="3" fill="#3867D6"/>
<circle cx="63" cy="39" r="3" fill="#3867D6"/>
<circle cx="63" cy="63" r="3" fill="#3867D6"/>
<circle cx="3" cy="75" r="3" fill="#3867D6"/>
<circle cx="3" cy="99" r="3" fill="#3867D6"/>
<circle cx="3" cy="123" r="3" fill="#3867D6"/>
<circle cx="3" cy="87" r="3" fill="#3867D6"/>
<circle cx="3" cy="111" r="3" fill="#3867D6"/>
<circle cx="3" cy="135" r="3" fill="#3867D6"/>
<circle cx="15" cy="75" r="3" fill="#3867D6"/>
<circle cx="15" cy="99" r="3" fill="#3867D6"/>
<circle cx="15" cy="123" r="3" fill="#3867D6"/>
<circle cx="15" cy="87" r="3" fill="#3867D6"/>
<circle cx="15" cy="111" r="3" fill="#3867D6"/>
<circle cx="15" cy="135" r="3" fill="#3867D6"/>
<circle cx="27" cy="75" r="3" fill="#3867D6"/>
<circle cx="27" cy="99" r="3" fill="#3867D6"/>
<circle cx="27" cy="123" r="3" fill="#3867D6"/>
<circle cx="27" cy="87" r="3" fill="#3867D6"/>
<circle cx="27" cy="111" r="3" fill="#3867D6"/>
<circle cx="27" cy="135" r="3" fill="#3867D6"/>
<circle cx="39" cy="75" r="3" fill="#3867D6"/>
<circle cx="39" cy="99" r="3" fill="#3867D6"/>
<circle cx="39" cy="123" r="3" fill="#3867D6"/>
<circle cx="39" cy="87" r="3" fill="#3867D6"/>
<circle cx="39" cy="111" r="3" fill="#3867D6"/>
<circle cx="39" cy="135" r="3" fill="#3867D6"/>
<circle cx="51" cy="75" r="3" fill="#3867D6"/>
<circle cx="51" cy="99" r="3" fill="#3867D6"/>
<circle cx="51" cy="123" r="3" fill="#3867D6"/>
<circle cx="51" cy="87" r="3" fill="#3867D6"/>
<circle cx="51" cy="111" r="3" fill="#3867D6"/>
<circle cx="51" cy="135" r="3" fill="#3867D6"/>
<circle cx="63" cy="75" r="3" fill="#3867D6"/>
<circle cx="63" cy="99" r="3" fill="#3867D6"/>
<circle cx="63" cy="123" r="3" fill="#3867D6"/>
<circle cx="63" cy="87" r="3" fill="#3867D6"/>
<circle cx="63" cy="111" r="3" fill="#3867D6"/>
<circle cx="63" cy="135" r="3" fill="#3867D6"/>
<circle cx="75" cy="3" r="3" fill="#3867D6"/>
<circle cx="75" cy="27" r="3" fill="#3867D6"/>
<circle cx="75" cy="51" r="3" fill="#3867D6"/>
<circle cx="75" cy="15" r="3" fill="#3867D6"/>
<circle cx="75" cy="39" r="3" fill="#3867D6"/>
<circle cx="75" cy="63" r="3" fill="#3867D6"/>
<circle cx="87" cy="3" r="3" fill="#3867D6"/>
<circle cx="87" cy="27" r="3" fill="#3867D6"/>
<circle cx="87" cy="51" r="3" fill="#3867D6"/>
<circle cx="87" cy="15" r="3" fill="#3867D6"/>
<circle cx="87" cy="39" r="3" fill="#3867D6"/>
<circle cx="87" cy="63" r="3" fill="#3867D6"/>
<circle cx="99" cy="3" r="3" fill="#3867D6"/>
<circle cx="99" cy="27" r="3" fill="#3867D6"/>
<circle cx="99" cy="51" r="3" fill="#3867D6"/>
<circle cx="99" cy="15" r="3" fill="#3867D6"/>
<circle cx="99" cy="39" r="3" fill="#3867D6"/>
<circle cx="99" cy="63" r="3" fill="#3867D6"/>
<circle cx="111" cy="3" r="3" fill="#3867D6"/>
<circle cx="111" cy="27" r="3" fill="#3867D6"/>
<circle cx="111" cy="51" r="3" fill="#3867D6"/>
<circle cx="111" cy="15" r="3" fill="#3867D6"/>
<circle cx="111" cy="39" r="3" fill="#3867D6"/>
<circle cx="111" cy="63" r="3" fill="#3867D6"/>
<circle cx="123" cy="3" r="3" fill="#3867D6"/>
<circle cx="123" cy="27" r="3" fill="#3867D6"/>
<circle cx="123" cy="51" r="3" fill="#3867D6"/>
<circle cx="123" cy="15" r="3" fill="#3867D6"/>
<circle cx="123" cy="39" r="3" fill="#3867D6"/>
<circle cx="123" cy="63" r="3" fill="#3867D6"/>
<circle cx="135" cy="3" r="3" fill="#3867D6"/>
<circle cx="135" cy="27" r="3" fill="#3867D6"/>
<circle cx="135" cy="51" r="3" fill="#3867D6"/>
<circle cx="135" cy="15" r="3" fill="#3867D6"/>
<circle cx="135" cy="39" r="3" fill="#3867D6"/>
<circle cx="135" cy="63" r="3" fill="#3867D6"/>
<circle cx="75" cy="75" r="3" fill="#3867D6"/>
<circle cx="75" cy="99" r="3" fill="#3867D6"/>
<circle cx="75" cy="123" r="3" fill="#3867D6"/>
<circle cx="75" cy="87" r="3" fill="#3867D6"/>
<circle cx="75" cy="111" r="3" fill="#3867D6"/>
<circle cx="75" cy="135" r="3" fill="#3867D6"/>
<circle cx="87" cy="75" r="3" fill="#3867D6"/>
<circle cx="87" cy="99" r="3" fill="#3867D6"/>
<circle cx="87" cy="123" r="3" fill="#3867D6"/>
<circle cx="87" cy="87" r="3" fill="#3867D6"/>
<circle cx="87" cy="111" r="3" fill="#3867D6"/>
<circle cx="87" cy="135" r="3" fill="#3867D6"/>
<circle cx="99" cy="75" r="3" fill="#3867D6"/>
<circle cx="99" cy="99" r="3" fill="#3867D6"/>
<circle cx="99" cy="123" r="3" fill="#3867D6"/>
<circle cx="99" cy="87" r="3" fill="#3867D6"/>
<circle cx="99" cy="111" r="3" fill="#3867D6"/>
<circle cx="99" cy="135" r="3" fill="#3867D6"/>
<circle cx="111" cy="75" r="3" fill="#3867D6"/>
<circle cx="111" cy="99" r="3" fill="#3867D6"/>
<circle cx="111" cy="123" r="3" fill="#3867D6"/>
<circle cx="111" cy="87" r="3" fill="#3867D6"/>
<circle cx="111" cy="111" r="3" fill="#3867D6"/>
<circle cx="111" cy="135" r="3" fill="#3867D6"/>
<circle cx="123" cy="75" r="3" fill="#3867D6"/>
<circle cx="123" cy="99" r="3" fill="#3867D6"/>
<circle cx="123" cy="123" r="3" fill="#3867D6"/>
<circle cx="123" cy="87" r="3" fill="#3867D6"/>
<circle cx="123" cy="111" r="3" fill="#3867D6"/>
<circle cx="123" cy="135" r="3" fill="#3867D6"/>
<circle cx="135" cy="75" r="3" fill="#3867D6"/>
<circle cx="135" cy="99" r="3" fill="#3867D6"/>
<circle cx="135" cy="123" r="3" fill="#3867D6"/>
<circle cx="135" cy="87" r="3" fill="#3867D6"/>
<circle cx="135" cy="111" r="3" fill="#3867D6"/>
<circle cx="135" cy="135" r="3" fill="#3867D6"/>
</svg>
