<svg width="40" height="40" viewBox="0 0 40 40" fill="none" xmlns="http://www.w3.org/2000/svg">
<path opacity="0.2" d="M19.6 8.39999C19.3557 8.64923 19.2188 8.98432 19.2188 9.33333C19.2188 9.68233 19.3557 10.0174 19.6 10.2667L21.7333 12.4C21.9826 12.6443 22.3177 12.7811 22.6667 12.7811C23.0157 12.7811 23.3508 12.6443 23.6 12.4L28.6267 7.37333C29.2971 8.85491 29.5001 10.5056 29.2086 12.1055C28.9171 13.7054 28.1449 15.1785 26.995 16.3284C25.8451 17.4783 24.3721 18.2504 22.7722 18.5419C21.1723 18.8334 19.5216 18.6304 18.04 17.96L8.82666 27.1733C8.29622 27.7038 7.5768 28.0018 6.82666 28.0018C6.07651 28.0018 5.35709 27.7038 4.82666 27.1733C4.29622 26.6429 3.99823 25.9235 3.99823 25.1733C3.99823 24.4232 4.29622 23.7038 4.82666 23.1733L14.04 13.96C13.3695 12.4784 13.1665 10.8277 13.458 9.2278C13.7495 7.62792 14.5217 6.15487 15.6716 5.00496C16.8215 3.85504 18.2946 3.08289 19.8945 2.79138C21.4943 2.49988 23.1451 2.70288 24.6267 3.37333L19.6133 8.38666L19.6 8.39999Z" fill="#3867D6" stroke="#3867D6" stroke-width="2" stroke-linecap="round" stroke-linejoin="round"/>
<path d="M23.6 12.4C23.3557 12.6492 23.2188 12.9843 23.2188 13.3333C23.2188 13.6823 23.3557 14.0174 23.6 14.2667L25.7333 16.4C25.9826 16.6443 26.3177 16.7811 26.6667 16.7811C27.0157 16.7811 27.3508 16.6443 27.6 16.4L32.6267 11.3733C33.2971 12.8549 33.5001 14.5056 33.2086 16.1055C32.9171 17.7054 32.1449 19.1785 30.995 20.3284C29.8451 21.4783 28.3721 22.2504 26.7722 22.5419C25.1723 22.8334 23.5216 22.6304 22.04 21.96L12.8267 31.1733C12.2962 31.7038 11.5768 32.0018 10.8267 32.0018C10.0765 32.0018 9.35709 31.7038 8.82666 31.1733C8.29622 30.6429 7.99823 29.9235 7.99823 29.1733C7.99823 28.4232 8.29622 27.7038 8.82666 27.1733L18.04 17.96C17.3695 16.4784 17.1665 14.8277 17.458 13.2278C17.7495 11.6279 18.5217 10.1549 19.6716 9.00496C20.8215 7.85504 22.2946 7.08289 23.8945 6.79138C25.4943 6.49988 27.1451 6.70288 28.6267 7.37333L23.6133 12.3867L23.6 12.4Z" stroke="#3867D6" stroke-width="2" stroke-linecap="round" stroke-linejoin="round"/>
</svg>
