<svg width="40" height="40" viewBox="0 0 40 40" fill="none" xmlns="http://www.w3.org/2000/svg">
<g opacity="0.2">
<path d="M24 28C26.2091 28 28 26.2091 28 24C28 21.7909 26.2091 20 24 20C21.7909 20 20 21.7909 20 24C20 26.2091 21.7909 28 24 28Z" fill="#3867D6" stroke="#3867D6" stroke-width="2" stroke-linecap="round" stroke-linejoin="round"/>
<path d="M8 12C10.2091 12 12 10.2091 12 8C12 5.79086 10.2091 4 8 4C5.79086 4 4 5.79086 4 8C4 10.2091 5.79086 12 8 12Z" fill="#3867D6" stroke="#3867D6" stroke-width="2" stroke-linecap="round" stroke-linejoin="round"/>
<path d="M17.3333 8H21.3333C22.0406 8 22.7188 8.28095 23.2189 8.78105C23.719 9.28115 24 9.95942 24 10.6667V20" stroke="#3867D6" stroke-width="2" stroke-linecap="round" stroke-linejoin="round"/>
<path d="M8 12V28" stroke="#3867D6" stroke-width="2" stroke-linecap="round" stroke-linejoin="round"/>
</g>
<path d="M28 32C30.2091 32 32 30.2091 32 28C32 25.7909 30.2091 24 28 24C25.7909 24 24 25.7909 24 28C24 30.2091 25.7909 32 28 32Z" stroke="#3867D6" stroke-width="2" stroke-linecap="round" stroke-linejoin="round"/>
<path d="M12 16C14.2091 16 16 14.2091 16 12C16 9.79086 14.2091 8 12 8C9.79086 8 8 9.79086 8 12C8 14.2091 9.79086 16 12 16Z" stroke="#3867D6" stroke-width="2" stroke-linecap="round" stroke-linejoin="round"/>
<path d="M21.3333 12H25.3333C26.0406 12 26.7188 12.281 27.2189 12.781C27.719 13.2811 28 13.9594 28 14.6667V24" stroke="#3867D6" stroke-width="2" stroke-linecap="round" stroke-linejoin="round"/>
<path d="M12 16V32" stroke="#3867D6" stroke-width="2" stroke-linecap="round" stroke-linejoin="round"/>
</svg>
