<svg width="48" height="85" viewBox="0 0 48 85" fill="none" xmlns="http://www.w3.org/2000/svg">
<path d="M9 1C10.1046 1 11 1.89542 11 3C11 5.20914 12.7909 7 15 7C16.1046 7 17 7.89542 17 9C17 10.1046 16.1046 11 15 11C12.7909 11 11 12.7909 11 15C11 16.1046 10.1046 17 9 17C7.89542 17 7 16.1046 7 15C7 12.7909 5.20914 11 3 11C1.89542 11 1 10.1046 1 9C1 7.89542 1.89542 7 3 7C5.20914 7 7 5.20914 7 3C7 1.89542 7.89542 1 9 1Z" stroke="#3867D6" stroke-width="2"/>
<circle cx="39" cy="76" r="8" stroke="#3867D6" stroke-width="2"/>
</svg>
