<svg width="450" height="414" viewBox="0 0 450 414" fill="none" xmlns="http://www.w3.org/2000/svg">
<g opacity="0.1">
<circle cx="3" cy="351" r="3" fill="#3867D6"/>
<circle cx="3" cy="375" r="3" fill="#3867D6"/>
<circle cx="3" cy="399" r="3" fill="#3867D6"/>
<circle cx="3" cy="363" r="3" fill="#3867D6"/>
<circle cx="3" cy="387" r="3" fill="#3867D6"/>
<circle cx="3" cy="411" r="3" fill="#3867D6"/>
<circle cx="15" cy="351" r="3" fill="#3867D6"/>
<circle cx="15" cy="375" r="3" fill="#3867D6"/>
<circle cx="15" cy="399" r="3" fill="#3867D6"/>
<circle cx="15" cy="363" r="3" fill="#3867D6"/>
<circle cx="15" cy="387" r="3" fill="#3867D6"/>
<circle cx="15" cy="411" r="3" fill="#3867D6"/>
<circle cx="27" cy="351" r="3" fill="#3867D6"/>
<circle cx="27" cy="375" r="3" fill="#3867D6"/>
<circle cx="27" cy="399" r="3" fill="#3867D6"/>
<circle cx="27" cy="363" r="3" fill="#3867D6"/>
<circle cx="27" cy="387" r="3" fill="#3867D6"/>
<circle cx="27" cy="411" r="3" fill="#3867D6"/>
<circle cx="39" cy="351" r="3" fill="#3867D6"/>
<circle cx="39" cy="375" r="3" fill="#3867D6"/>
<circle cx="39" cy="399" r="3" fill="#3867D6"/>
<circle cx="39" cy="363" r="3" fill="#3867D6"/>
<circle cx="39" cy="387" r="3" fill="#3867D6"/>
<circle cx="39" cy="411" r="3" fill="#3867D6"/>
<circle cx="51" cy="351" r="3" fill="#3867D6"/>
<circle cx="51" cy="375" r="3" fill="#3867D6"/>
<circle cx="51" cy="399" r="3" fill="#3867D6"/>
<circle cx="51" cy="363" r="3" fill="#3867D6"/>
<circle cx="51" cy="387" r="3" fill="#3867D6"/>
<circle cx="51" cy="411" r="3" fill="#3867D6"/>
<circle cx="63" cy="351" r="3" fill="#3867D6"/>
<circle cx="63" cy="375" r="3" fill="#3867D6"/>
<circle cx="63" cy="399" r="3" fill="#3867D6"/>
<circle cx="63" cy="363" r="3" fill="#3867D6"/>
<circle cx="63" cy="387" r="3" fill="#3867D6"/>
<circle cx="63" cy="411" r="3" fill="#3867D6"/>
</g>
<g opacity="0.1">
<circle cx="171" cy="3" r="3" fill="#3867D6"/>
<circle cx="171" cy="27" r="3" fill="#3867D6"/>
<circle cx="171" cy="51" r="3" fill="#3867D6"/>
<circle cx="171" cy="15" r="3" fill="#3867D6"/>
<circle cx="171" cy="39" r="3" fill="#3867D6"/>
<circle cx="171" cy="63" r="3" fill="#3867D6"/>
<circle cx="183" cy="3" r="3" fill="#3867D6"/>
<circle cx="183" cy="27" r="3" fill="#3867D6"/>
<circle cx="183" cy="51" r="3" fill="#3867D6"/>
<circle cx="183" cy="15" r="3" fill="#3867D6"/>
<circle cx="183" cy="39" r="3" fill="#3867D6"/>
<circle cx="183" cy="63" r="3" fill="#3867D6"/>
<circle cx="195" cy="3" r="3" fill="#3867D6"/>
<circle cx="195" cy="27" r="3" fill="#3867D6"/>
<circle cx="195" cy="51" r="3" fill="#3867D6"/>
<circle cx="195" cy="15" r="3" fill="#3867D6"/>
<circle cx="195" cy="39" r="3" fill="#3867D6"/>
<circle cx="195" cy="63" r="3" fill="#3867D6"/>
<circle cx="207" cy="3" r="3" fill="#3867D6"/>
<circle cx="207" cy="27" r="3" fill="#3867D6"/>
<circle cx="207" cy="51" r="3" fill="#3867D6"/>
<circle cx="207" cy="15" r="3" fill="#3867D6"/>
<circle cx="207" cy="39" r="3" fill="#3867D6"/>
<circle cx="207" cy="63" r="3" fill="#3867D6"/>
<circle cx="219" cy="3" r="3" fill="#3867D6"/>
<circle cx="219" cy="27" r="3" fill="#3867D6"/>
<circle cx="219" cy="51" r="3" fill="#3867D6"/>
<circle cx="219" cy="15" r="3" fill="#3867D6"/>
<circle cx="219" cy="39" r="3" fill="#3867D6"/>
<circle cx="219" cy="63" r="3" fill="#3867D6"/>
<circle cx="231" cy="3" r="3" fill="#3867D6"/>
<circle cx="231" cy="27" r="3" fill="#3867D6"/>
<circle cx="231" cy="51" r="3" fill="#3867D6"/>
<circle cx="231" cy="15" r="3" fill="#3867D6"/>
<circle cx="231" cy="39" r="3" fill="#3867D6"/>
<circle cx="231" cy="63" r="3" fill="#3867D6"/>
</g>
<g opacity="0.1">
<circle cx="171" cy="75" r="3" fill="#3867D6"/>
<circle cx="171" cy="99" r="3" fill="#3867D6"/>
<circle cx="171" cy="123" r="3" fill="#3867D6"/>
<circle cx="171" cy="87" r="3" fill="#3867D6"/>
<circle cx="171" cy="111" r="3" fill="#3867D6"/>
<circle cx="171" cy="135" r="3" fill="#3867D6"/>
<circle cx="183" cy="75" r="3" fill="#3867D6"/>
<circle cx="183" cy="99" r="3" fill="#3867D6"/>
<circle cx="183" cy="123" r="3" fill="#3867D6"/>
<circle cx="183" cy="87" r="3" fill="#3867D6"/>
<circle cx="183" cy="111" r="3" fill="#3867D6"/>
<circle cx="183" cy="135" r="3" fill="#3867D6"/>
<circle cx="195" cy="75" r="3" fill="#3867D6"/>
<circle cx="195" cy="99" r="3" fill="#3867D6"/>
<circle cx="195" cy="123" r="3" fill="#3867D6"/>
<circle cx="195" cy="87" r="3" fill="#3867D6"/>
<circle cx="195" cy="111" r="3" fill="#3867D6"/>
<circle cx="195" cy="135" r="3" fill="#3867D6"/>
<circle cx="207" cy="75" r="3" fill="#3867D6"/>
<circle cx="207" cy="99" r="3" fill="#3867D6"/>
<circle cx="207" cy="123" r="3" fill="#3867D6"/>
<circle cx="207" cy="87" r="3" fill="#3867D6"/>
<circle cx="207" cy="111" r="3" fill="#3867D6"/>
<circle cx="207" cy="135" r="3" fill="#3867D6"/>
<circle cx="219" cy="75" r="3" fill="#3867D6"/>
<circle cx="219" cy="99" r="3" fill="#3867D6"/>
<circle cx="219" cy="123" r="3" fill="#3867D6"/>
<circle cx="219" cy="87" r="3" fill="#3867D6"/>
<circle cx="219" cy="111" r="3" fill="#3867D6"/>
<circle cx="219" cy="135" r="3" fill="#3867D6"/>
<circle cx="231" cy="75" r="3" fill="#3867D6"/>
<circle cx="231" cy="99" r="3" fill="#3867D6"/>
<circle cx="231" cy="123" r="3" fill="#3867D6"/>
<circle cx="231" cy="87" r="3" fill="#3867D6"/>
<circle cx="231" cy="111" r="3" fill="#3867D6"/>
<circle cx="231" cy="135" r="3" fill="#3867D6"/>
</g>
<g opacity="0.1">
<circle cx="243" cy="3" r="3" fill="#3867D6"/>
<circle cx="243" cy="27" r="3" fill="#3867D6"/>
<circle cx="243" cy="51" r="3" fill="#3867D6"/>
<circle cx="243" cy="15" r="3" fill="#3867D6"/>
<circle cx="243" cy="39" r="3" fill="#3867D6"/>
<circle cx="243" cy="63" r="3" fill="#3867D6"/>
<circle cx="255" cy="3" r="3" fill="#3867D6"/>
<circle cx="255" cy="27" r="3" fill="#3867D6"/>
<circle cx="255" cy="51" r="3" fill="#3867D6"/>
<circle cx="255" cy="15" r="3" fill="#3867D6"/>
<circle cx="255" cy="39" r="3" fill="#3867D6"/>
<circle cx="255" cy="63" r="3" fill="#3867D6"/>
<circle cx="267" cy="3" r="3" fill="#3867D6"/>
<circle cx="267" cy="27" r="3" fill="#3867D6"/>
<circle cx="267" cy="51" r="3" fill="#3867D6"/>
<circle cx="267" cy="15" r="3" fill="#3867D6"/>
<circle cx="267" cy="39" r="3" fill="#3867D6"/>
<circle cx="267" cy="63" r="3" fill="#3867D6"/>
<circle cx="279" cy="3" r="3" fill="#3867D6"/>
<circle cx="279" cy="27" r="3" fill="#3867D6"/>
<circle cx="279" cy="51" r="3" fill="#3867D6"/>
<circle cx="279" cy="15" r="3" fill="#3867D6"/>
<circle cx="279" cy="39" r="3" fill="#3867D6"/>
<circle cx="279" cy="63" r="3" fill="#3867D6"/>
<circle cx="291" cy="3" r="3" fill="#3867D6"/>
<circle cx="291" cy="27" r="3" fill="#3867D6"/>
<circle cx="291" cy="51" r="3" fill="#3867D6"/>
<circle cx="291" cy="15" r="3" fill="#3867D6"/>
<circle cx="291" cy="39" r="3" fill="#3867D6"/>
<circle cx="291" cy="63" r="3" fill="#3867D6"/>
<circle cx="303" cy="3" r="3" fill="#3867D6"/>
<circle cx="303" cy="27" r="3" fill="#3867D6"/>
<circle cx="303" cy="51" r="3" fill="#3867D6"/>
<circle cx="303" cy="15" r="3" fill="#3867D6"/>
<circle cx="303" cy="39" r="3" fill="#3867D6"/>
<circle cx="303" cy="63" r="3" fill="#3867D6"/>
</g>
<g opacity="0.1">
<circle cx="243" cy="75" r="3" fill="#3867D6"/>
<circle cx="243" cy="99" r="3" fill="#3867D6"/>
<circle cx="243" cy="123" r="3" fill="#3867D6"/>
<circle cx="243" cy="87" r="3" fill="#3867D6"/>
<circle cx="243" cy="111" r="3" fill="#3867D6"/>
<circle cx="243" cy="135" r="3" fill="#3867D6"/>
<circle cx="255" cy="75" r="3" fill="#3867D6"/>
<circle cx="255" cy="99" r="3" fill="#3867D6"/>
<circle cx="255" cy="123" r="3" fill="#3867D6"/>
<circle cx="255" cy="87" r="3" fill="#3867D6"/>
<circle cx="255" cy="111" r="3" fill="#3867D6"/>
<circle cx="255" cy="135" r="3" fill="#3867D6"/>
<circle cx="267" cy="75" r="3" fill="#3867D6"/>
<circle cx="267" cy="99" r="3" fill="#3867D6"/>
<circle cx="267" cy="123" r="3" fill="#3867D6"/>
<circle cx="267" cy="87" r="3" fill="#3867D6"/>
<circle cx="267" cy="111" r="3" fill="#3867D6"/>
<circle cx="267" cy="135" r="3" fill="#3867D6"/>
<circle cx="279" cy="75" r="3" fill="#3867D6"/>
<circle cx="279" cy="99" r="3" fill="#3867D6"/>
<circle cx="279" cy="123" r="3" fill="#3867D6"/>
<circle cx="279" cy="87" r="3" fill="#3867D6"/>
<circle cx="279" cy="111" r="3" fill="#3867D6"/>
<circle cx="279" cy="135" r="3" fill="#3867D6"/>
<circle cx="291" cy="75" r="3" fill="#3867D6"/>
<circle cx="291" cy="99" r="3" fill="#3867D6"/>
<circle cx="291" cy="123" r="3" fill="#3867D6"/>
<circle cx="291" cy="87" r="3" fill="#3867D6"/>
<circle cx="291" cy="111" r="3" fill="#3867D6"/>
<circle cx="291" cy="135" r="3" fill="#3867D6"/>
<circle cx="303" cy="75" r="3" fill="#3867D6"/>
<circle cx="303" cy="99" r="3" fill="#3867D6"/>
<circle cx="303" cy="123" r="3" fill="#3867D6"/>
<circle cx="303" cy="87" r="3" fill="#3867D6"/>
<circle cx="303" cy="111" r="3" fill="#3867D6"/>
<circle cx="303" cy="135" r="3" fill="#3867D6"/>
</g>
<path opacity="0.2" d="M328.25 138.25V99.75C328.25 99.75 328 91.5 353 91.5C378 91.5 377.75 99.75 377.75 99.75V138.25C377.75 142.815 366.75 146.5 353 146.5C339.25 146.5 328.25 142.815 328.25 138.25Z" fill="#3867D6"/>
<path d="M332.25 103.75V142.25C332.25 146.815 343.25 150.5 357 150.5C370.75 150.5 381.75 146.815 381.75 142.25V103.75" stroke="#3867D6" stroke-width="2" stroke-linecap="round" stroke-linejoin="round"/>
<path d="M357 112C370.669 112 381.75 108.306 381.75 103.75C381.75 99.1937 370.669 95.5 357 95.5C343.331 95.5 332.25 99.1937 332.25 103.75C332.25 108.306 343.331 112 357 112Z" stroke="#3867D6" stroke-width="2" stroke-linecap="round" stroke-linejoin="round"/>
<path d="M381.75 123C381.75 127.565 370.75 131.25 357 131.25C343.25 131.25 332.25 127.565 332.25 123" stroke="#3867D6" stroke-width="2" stroke-linecap="round" stroke-linejoin="round"/>
<path opacity="0.2" d="M237.5 163H204.5C201.462 163 199 165.462 199 168.5V201.5C199 204.538 201.462 207 204.5 207H237.5C240.538 207 243 204.538 243 201.5V168.5C243 165.462 240.538 163 237.5 163Z" fill="#3867D6"/>
<path opacity="0.1" fill-rule="evenodd" clip-rule="evenodd" d="M174 147C174 148.657 172.657 150 171 150C169.343 150 168 148.657 168 147C168 145.343 169.343 144 171 144C172.657 144 174 145.343 174 147ZM174 171C174 172.657 172.657 174 171 174C169.343 174 168 172.657 168 171C168 169.343 169.343 168 171 168C172.657 168 174 169.343 174 171ZM171 198C172.657 198 174 196.657 174 195C174 193.343 172.657 192 171 192C169.343 192 168 193.343 168 195C168 196.657 169.343 198 171 198ZM174 159C174 160.657 172.657 162 171 162C169.343 162 168 160.657 168 159C168 157.343 169.343 156 171 156C172.657 156 174 157.343 174 159ZM171 186C172.657 186 174 184.657 174 183C174 181.343 172.657 180 171 180C169.343 180 168 181.343 168 183C168 184.657 169.343 186 171 186ZM174 207C174 208.657 172.657 210 171 210C169.343 210 168 208.657 168 207C168 205.343 169.343 204 171 204C172.657 204 174 205.343 174 207ZM183 150C184.657 150 186 148.657 186 147C186 145.343 184.657 144 183 144C181.343 144 180 145.343 180 147C180 148.657 181.343 150 183 150ZM186 171C186 172.657 184.657 174 183 174C181.343 174 180 172.657 180 171C180 169.343 181.343 168 183 168C184.657 168 186 169.343 186 171ZM183 198C184.657 198 186 196.657 186 195C186 193.343 184.657 192 183 192C181.343 192 180 193.343 180 195C180 196.657 181.343 198 183 198ZM186 159C186 160.657 184.657 162 183 162C181.343 162 180 160.657 180 159C180 157.343 181.343 156 183 156C184.657 156 186 157.343 186 159ZM183 186C184.657 186 186 184.657 186 183C186 181.343 184.657 180 183 180C181.343 180 180 181.343 180 183C180 184.657 181.343 186 183 186ZM186 207C186 208.657 184.657 210 183 210C181.343 210 180 208.657 180 207C180 205.343 181.343 204 183 204C184.657 204 186 205.343 186 207ZM195 150C196.657 150 198 148.657 198 147C198 145.343 196.657 144 195 144C193.343 144 192 145.343 192 147C192 148.657 193.343 150 195 150ZM198 171C198 172.657 196.657 174 195 174C193.343 174 192 172.657 192 171C192 169.343 193.343 168 195 168C196.657 168 198 169.343 198 171ZM195 198C196.657 198 198 196.657 198 195C198 193.343 196.657 192 195 192C193.343 192 192 193.343 192 195C192 196.657 193.343 198 195 198ZM198 159C198 160.657 196.657 162 195 162C193.343 162 192 160.657 192 159C192 157.343 193.343 156 195 156C196.657 156 198 157.343 198 159ZM195 186C196.657 186 198 184.657 198 183C198 181.343 196.657 180 195 180C193.343 180 192 181.343 192 183C192 184.657 193.343 186 195 186ZM198 207C198 208.657 196.657 210 195 210C193.343 210 192 208.657 192 207C192 205.343 193.343 204 195 204C196.657 204 198 205.343 198 207ZM207 150C208.657 150 210 148.657 210 147C210 145.343 208.657 144 207 144C205.343 144 204 145.343 204 147C204 148.657 205.343 150 207 150ZM210 159C210 160.657 208.657 162 207 162C205.343 162 204 160.657 204 159C204 157.343 205.343 156 207 156C208.657 156 210 157.343 210 159ZM219 150C220.657 150 222 148.657 222 147C222 145.343 220.657 144 219 144C217.343 144 216 145.343 216 147C216 148.657 217.343 150 219 150ZM222 159C222 160.657 220.657 162 219 162C217.343 162 216 160.657 216 159C216 157.343 217.343 156 219 156C220.657 156 222 157.343 222 159ZM231 150C232.657 150 234 148.657 234 147C234 145.343 232.657 144 231 144C229.343 144 228 145.343 228 147C228 148.657 229.343 150 231 150ZM234 159C234 160.657 232.657 162 231 162C229.343 162 228 160.657 228 159C228 157.343 229.343 156 231 156C232.657 156 234 157.343 234 159ZM171 222C172.657 222 174 220.657 174 219C174 217.343 172.657 216 171 216C169.343 216 168 217.343 168 219C168 220.657 169.343 222 171 222ZM174 243C174 244.657 172.657 246 171 246C169.343 246 168 244.657 168 243C168 241.343 169.343 240 171 240C172.657 240 174 241.343 174 243ZM171 270C172.657 270 174 268.657 174 267C174 265.343 172.657 264 171 264C169.343 264 168 265.343 168 267C168 268.657 169.343 270 171 270ZM174 231C174 232.657 172.657 234 171 234C169.343 234 168 232.657 168 231C168 229.343 169.343 228 171 228C172.657 228 174 229.343 174 231ZM171 258C172.657 258 174 256.657 174 255C174 253.343 172.657 252 171 252C169.343 252 168 253.343 168 255C168 256.657 169.343 258 171 258ZM174 279C174 280.657 172.657 282 171 282C169.343 282 168 280.657 168 279C168 277.343 169.343 276 171 276C172.657 276 174 277.343 174 279ZM183 222C184.657 222 186 220.657 186 219C186 217.343 184.657 216 183 216C181.343 216 180 217.343 180 219C180 220.657 181.343 222 183 222ZM186 243C186 244.657 184.657 246 183 246C181.343 246 180 244.657 180 243C180 241.343 181.343 240 183 240C184.657 240 186 241.343 186 243ZM183 270C184.657 270 186 268.657 186 267C186 265.343 184.657 264 183 264C181.343 264 180 265.343 180 267C180 268.657 181.343 270 183 270ZM186 231C186 232.657 184.657 234 183 234C181.343 234 180 232.657 180 231C180 229.343 181.343 228 183 228C184.657 228 186 229.343 186 231ZM183 258C184.657 258 186 256.657 186 255C186 253.343 184.657 252 183 252C181.343 252 180 253.343 180 255C180 256.657 181.343 258 183 258ZM186 279C186 280.657 184.657 282 183 282C181.343 282 180 280.657 180 279C180 277.343 181.343 276 183 276C184.657 276 186 277.343 186 279ZM195 222C196.657 222 198 220.657 198 219C198 217.343 196.657 216 195 216C193.343 216 192 217.343 192 219C192 220.657 193.343 222 195 222ZM198 243C198 244.657 196.657 246 195 246C193.343 246 192 244.657 192 243C192 241.343 193.343 240 195 240C196.657 240 198 241.343 198 243ZM195 270C196.657 270 198 268.657 198 267C198 265.343 196.657 264 195 264C193.343 264 192 265.343 192 267C192 268.657 193.343 270 195 270ZM198 231C198 232.657 196.657 234 195 234C193.343 234 192 232.657 192 231C192 229.343 193.343 228 195 228C196.657 228 198 229.343 198 231ZM195 258C196.657 258 198 256.657 198 255C198 253.343 196.657 252 195 252C193.343 252 192 253.343 192 255C192 256.657 193.343 258 195 258ZM198 279C198 280.657 196.657 282 195 282C193.343 282 192 280.657 192 279C192 277.343 193.343 276 195 276C196.657 276 198 277.343 198 279ZM207 222C208.657 222 210 220.657 210 219C210 217.343 208.657 216 207 216C205.343 216 204 217.343 204 219C204 220.657 205.343 222 207 222ZM210 243C210 244.657 208.657 246 207 246C205.343 246 204 244.657 204 243C204 241.343 205.343 240 207 240C208.657 240 210 241.343 210 243ZM207 270C208.657 270 210 268.657 210 267C210 265.343 208.657 264 207 264C205.343 264 204 265.343 204 267C204 268.657 205.343 270 207 270ZM210 231C210 232.657 208.657 234 207 234C205.343 234 204 232.657 204 231C204 229.343 205.343 228 207 228C208.657 228 210 229.343 210 231ZM207 258C208.657 258 210 256.657 210 255C210 253.343 208.657 252 207 252C205.343 252 204 253.343 204 255C204 256.657 205.343 258 207 258ZM210 279C210 280.657 208.657 282 207 282C205.343 282 204 280.657 204 279C204 277.343 205.343 276 207 276C208.657 276 210 277.343 210 279ZM219 222C220.657 222 222 220.657 222 219C222 217.343 220.657 216 219 216C217.343 216 216 217.343 216 219C216 220.657 217.343 222 219 222ZM222 243C222 244.657 220.657 246 219 246C217.343 246 216 244.657 216 243C216 241.343 217.343 240 219 240C220.657 240 222 241.343 222 243ZM219 270C220.657 270 222 268.657 222 267C222 265.343 220.657 264 219 264C217.343 264 216 265.343 216 267C216 268.657 217.343 270 219 270ZM222 231C222 232.657 220.657 234 219 234C217.343 234 216 232.657 216 231C216 229.343 217.343 228 219 228C220.657 228 222 229.343 222 231ZM219 258C220.657 258 222 256.657 222 255C222 253.343 220.657 252 219 252C217.343 252 216 253.343 216 255C216 256.657 217.343 258 219 258ZM222 279C222 280.657 220.657 282 219 282C217.343 282 216 280.657 216 279C216 277.343 217.343 276 219 276C220.657 276 222 277.343 222 279ZM231 222C232.657 222 234 220.657 234 219C234 217.343 232.657 216 231 216C229.343 216 228 217.343 228 219C228 220.657 229.343 222 231 222ZM234 243C234 244.657 232.657 246 231 246C229.343 246 228 244.657 228 243C228 241.343 229.343 240 231 240C232.657 240 234 241.343 234 243ZM231 270C232.657 270 234 268.657 234 267C234 265.343 232.657 264 231 264C229.343 264 228 265.343 228 267C228 268.657 229.343 270 231 270ZM234 231C234 232.657 232.657 234 231 234C229.343 234 228 232.657 228 231C228 229.343 229.343 228 231 228C232.657 228 234 229.343 234 231ZM231 258C232.657 258 234 256.657 234 255C234 253.343 232.657 252 231 252C229.343 252 228 253.343 228 255C228 256.657 229.343 258 231 258ZM234 279C234 280.657 232.657 282 231 282C229.343 282 228 280.657 228 279C228 277.343 229.343 276 231 276C232.657 276 234 277.343 234 279ZM243 150C244.657 150 246 148.657 246 147C246 145.343 244.657 144 243 144C241.343 144 240 145.343 240 147C240 148.657 241.343 150 243 150ZM246 159C246 160.657 244.657 162 243 162C241.343 162 240 160.657 240 159C240 157.343 241.343 156 243 156C244.657 156 246 157.343 246 159ZM255 150C256.657 150 258 148.657 258 147C258 145.343 256.657 144 255 144C253.343 144 252 145.343 252 147C252 148.657 253.343 150 255 150ZM258 171C258 172.657 256.657 174 255 174C253.343 174 252 172.657 252 171C252 169.343 253.343 168 255 168C256.657 168 258 169.343 258 171ZM255 198C256.657 198 258 196.657 258 195C258 193.343 256.657 192 255 192C253.343 192 252 193.343 252 195C252 196.657 253.343 198 255 198ZM258 159C258 160.657 256.657 162 255 162C253.343 162 252 160.657 252 159C252 157.343 253.343 156 255 156C256.657 156 258 157.343 258 159ZM255 186C256.657 186 258 184.657 258 183C258 181.343 256.657 180 255 180C253.343 180 252 181.343 252 183C252 184.657 253.343 186 255 186ZM258 207C258 208.657 256.657 210 255 210C253.343 210 252 208.657 252 207C252 205.343 253.343 204 255 204C256.657 204 258 205.343 258 207ZM267 150C268.657 150 270 148.657 270 147C270 145.343 268.657 144 267 144C265.343 144 264 145.343 264 147C264 148.657 265.343 150 267 150ZM270 171C270 172.657 268.657 174 267 174C265.343 174 264 172.657 264 171C264 169.343 265.343 168 267 168C268.657 168 270 169.343 270 171ZM267 198C268.657 198 270 196.657 270 195C270 193.343 268.657 192 267 192C265.343 192 264 193.343 264 195C264 196.657 265.343 198 267 198ZM270 159C270 160.657 268.657 162 267 162C265.343 162 264 160.657 264 159C264 157.343 265.343 156 267 156C268.657 156 270 157.343 270 159ZM267 186C268.657 186 270 184.657 270 183C270 181.343 268.657 180 267 180C265.343 180 264 181.343 264 183C264 184.657 265.343 186 267 186ZM270 207C270 208.657 268.657 210 267 210C265.343 210 264 208.657 264 207C264 205.343 265.343 204 267 204C268.657 204 270 205.343 270 207ZM279 150C280.657 150 282 148.657 282 147C282 145.343 280.657 144 279 144C277.343 144 276 145.343 276 147C276 148.657 277.343 150 279 150ZM282 171C282 172.657 280.657 174 279 174C277.343 174 276 172.657 276 171C276 169.343 277.343 168 279 168C280.657 168 282 169.343 282 171ZM279 198C280.657 198 282 196.657 282 195C282 193.343 280.657 192 279 192C277.343 192 276 193.343 276 195C276 196.657 277.343 198 279 198ZM282 159C282 160.657 280.657 162 279 162C277.343 162 276 160.657 276 159C276 157.343 277.343 156 279 156C280.657 156 282 157.343 282 159ZM279 186C280.657 186 282 184.657 282 183C282 181.343 280.657 180 279 180C277.343 180 276 181.343 276 183C276 184.657 277.343 186 279 186ZM282 207C282 208.657 280.657 210 279 210C277.343 210 276 208.657 276 207C276 205.343 277.343 204 279 204C280.657 204 282 205.343 282 207ZM291 150C292.657 150 294 148.657 294 147C294 145.343 292.657 144 291 144C289.343 144 288 145.343 288 147C288 148.657 289.343 150 291 150ZM294 171C294 172.657 292.657 174 291 174C289.343 174 288 172.657 288 171C288 169.343 289.343 168 291 168C292.657 168 294 169.343 294 171ZM291 198C292.657 198 294 196.657 294 195C294 193.343 292.657 192 291 192C289.343 192 288 193.343 288 195C288 196.657 289.343 198 291 198ZM294 159C294 160.657 292.657 162 291 162C289.343 162 288 160.657 288 159C288 157.343 289.343 156 291 156C292.657 156 294 157.343 294 159ZM291 186C292.657 186 294 184.657 294 183C294 181.343 292.657 180 291 180C289.343 180 288 181.343 288 183C288 184.657 289.343 186 291 186ZM294 207C294 208.657 292.657 210 291 210C289.343 210 288 208.657 288 207C288 205.343 289.343 204 291 204C292.657 204 294 205.343 294 207ZM303 150C304.657 150 306 148.657 306 147C306 145.343 304.657 144 303 144C301.343 144 300 145.343 300 147C300 148.657 301.343 150 303 150ZM306 171C306 172.657 304.657 174 303 174C301.343 174 300 172.657 300 171C300 169.343 301.343 168 303 168C304.657 168 306 169.343 306 171ZM303 198C304.657 198 306 196.657 306 195C306 193.343 304.657 192 303 192C301.343 192 300 193.343 300 195C300 196.657 301.343 198 303 198ZM306 159C306 160.657 304.657 162 303 162C301.343 162 300 160.657 300 159C300 157.343 301.343 156 303 156C304.657 156 306 157.343 306 159ZM303 186C304.657 186 306 184.657 306 183C306 181.343 304.657 180 303 180C301.343 180 300 181.343 300 183C300 184.657 301.343 186 303 186ZM306 207C306 208.657 304.657 210 303 210C301.343 210 300 208.657 300 207C300 205.343 301.343 204 303 204C304.657 204 306 205.343 306 207ZM243 222C244.657 222 246 220.657 246 219C246 217.343 244.657 216 243 216C241.343 216 240 217.343 240 219C240 220.657 241.343 222 243 222ZM246 243C246 244.657 244.657 246 243 246C241.343 246 240 244.657 240 243C240 241.343 241.343 240 243 240C244.657 240 246 241.343 246 243ZM243 270C244.657 270 246 268.657 246 267C246 265.343 244.657 264 243 264C241.343 264 240 265.343 240 267C240 268.657 241.343 270 243 270ZM246 231C246 232.657 244.657 234 243 234C241.343 234 240 232.657 240 231C240 229.343 241.343 228 243 228C244.657 228 246 229.343 246 231ZM243 258C244.657 258 246 256.657 246 255C246 253.343 244.657 252 243 252C241.343 252 240 253.343 240 255C240 256.657 241.343 258 243 258ZM246 279C246 280.657 244.657 282 243 282C241.343 282 240 280.657 240 279C240 277.343 241.343 276 243 276C244.657 276 246 277.343 246 279ZM255 222C256.657 222 258 220.657 258 219C258 217.343 256.657 216 255 216C253.343 216 252 217.343 252 219C252 220.657 253.343 222 255 222ZM258 243C258 244.657 256.657 246 255 246C253.343 246 252 244.657 252 243C252 241.343 253.343 240 255 240C256.657 240 258 241.343 258 243ZM255 270C256.657 270 258 268.657 258 267C258 265.343 256.657 264 255 264C253.343 264 252 265.343 252 267C252 268.657 253.343 270 255 270ZM258 231C258 232.657 256.657 234 255 234C253.343 234 252 232.657 252 231C252 229.343 253.343 228 255 228C256.657 228 258 229.343 258 231ZM255 258C256.657 258 258 256.657 258 255C258 253.343 256.657 252 255 252C253.343 252 252 253.343 252 255C252 256.657 253.343 258 255 258ZM258 279C258 280.657 256.657 282 255 282C253.343 282 252 280.657 252 279C252 277.343 253.343 276 255 276C256.657 276 258 277.343 258 279ZM267 222C268.657 222 270 220.657 270 219C270 217.343 268.657 216 267 216C265.343 216 264 217.343 264 219C264 220.657 265.343 222 267 222ZM270 243C270 244.657 268.657 246 267 246C265.343 246 264 244.657 264 243C264 241.343 265.343 240 267 240C268.657 240 270 241.343 270 243ZM267 270C268.657 270 270 268.657 270 267C270 265.343 268.657 264 267 264C265.343 264 264 265.343 264 267C264 268.657 265.343 270 267 270ZM270 231C270 232.657 268.657 234 267 234C265.343 234 264 232.657 264 231C264 229.343 265.343 228 267 228C268.657 228 270 229.343 270 231ZM267 258C268.657 258 270 256.657 270 255C270 253.343 268.657 252 267 252C265.343 252 264 253.343 264 255C264 256.657 265.343 258 267 258ZM270 279C270 280.657 268.657 282 267 282C265.343 282 264 280.657 264 279C264 277.343 265.343 276 267 276C268.657 276 270 277.343 270 279ZM279 222C280.657 222 282 220.657 282 219C282 217.343 280.657 216 279 216C277.343 216 276 217.343 276 219C276 220.657 277.343 222 279 222ZM282 243C282 244.657 280.657 246 279 246C277.343 246 276 244.657 276 243C276 241.343 277.343 240 279 240C280.657 240 282 241.343 282 243ZM279 270C280.657 270 282 268.657 282 267C282 265.343 280.657 264 279 264C277.343 264 276 265.343 276 267C276 268.657 277.343 270 279 270ZM282 231C282 232.657 280.657 234 279 234C277.343 234 276 232.657 276 231C276 229.343 277.343 228 279 228C280.657 228 282 229.343 282 231ZM279 258C280.657 258 282 256.657 282 255C282 253.343 280.657 252 279 252C277.343 252 276 253.343 276 255C276 256.657 277.343 258 279 258ZM282 279C282 280.657 280.657 282 279 282C277.343 282 276 280.657 276 279C276 277.343 277.343 276 279 276C280.657 276 282 277.343 282 279ZM291 222C292.657 222 294 220.657 294 219C294 217.343 292.657 216 291 216C289.343 216 288 217.343 288 219C288 220.657 289.343 222 291 222ZM294 243C294 244.657 292.657 246 291 246C289.343 246 288 244.657 288 243C288 241.343 289.343 240 291 240C292.657 240 294 241.343 294 243ZM291 270C292.657 270 294 268.657 294 267C294 265.343 292.657 264 291 264C289.343 264 288 265.343 288 267C288 268.657 289.343 270 291 270ZM294 231C294 232.657 292.657 234 291 234C289.343 234 288 232.657 288 231C288 229.343 289.343 228 291 228C292.657 228 294 229.343 294 231ZM291 258C292.657 258 294 256.657 294 255C294 253.343 292.657 252 291 252C289.343 252 288 253.343 288 255C288 256.657 289.343 258 291 258ZM294 279C294 280.657 292.657 282 291 282C289.343 282 288 280.657 288 279C288 277.343 289.343 276 291 276C292.657 276 294 277.343 294 279ZM303 222C304.657 222 306 220.657 306 219C306 217.343 304.657 216 303 216C301.343 216 300 217.343 300 219C300 220.657 301.343 222 303 222ZM306 243C306 244.657 304.657 246 303 246C301.343 246 300 244.657 300 243C300 241.343 301.343 240 303 240C304.657 240 306 241.343 306 243ZM303 270C304.657 270 306 268.657 306 267C306 265.343 304.657 264 303 264C301.343 264 300 265.343 300 267C300 268.657 301.343 270 303 270ZM306 231C306 232.657 304.657 234 303 234C301.343 234 300 232.657 300 231C300 229.343 301.343 228 303 228C304.657 228 306 229.343 306 231ZM303 258C304.657 258 306 256.657 306 255C306 253.343 304.657 252 303 252C301.343 252 300 253.343 300 255C300 256.657 301.343 258 303 258ZM306 279C306 280.657 304.657 282 303 282C301.343 282 300 280.657 300 279C300 277.343 301.343 276 303 276C304.657 276 306 277.343 306 279Z" fill="#3867D6"/>
<path d="M241.5 167H208.5C205.462 167 203 169.462 203 172.5V205.5C203 208.538 205.462 211 208.5 211H241.5C244.538 211 247 208.538 247 205.5V172.5C247 169.462 244.538 167 241.5 167Z" stroke="#3867D6" stroke-width="2" stroke-linecap="round" stroke-linejoin="round"/>
<path d="M233.25 180.75H216.75V197.25H233.25V180.75Z" stroke="#3867D6" stroke-width="2" stroke-linecap="round" stroke-linejoin="round"/>
<path d="M216.75 158.75V167" stroke="#3867D6" stroke-width="2" stroke-linecap="round" stroke-linejoin="round"/>
<path d="M233.25 158.75V167" stroke="#3867D6" stroke-width="2" stroke-linecap="round" stroke-linejoin="round"/>
<path d="M216.75 211V219.25" stroke="#3867D6" stroke-width="2" stroke-linecap="round" stroke-linejoin="round"/>
<path d="M233.25 211V219.25" stroke="#3867D6" stroke-width="2" stroke-linecap="round" stroke-linejoin="round"/>
<path d="M247 180.75H255.25" stroke="#3867D6" stroke-width="2" stroke-linecap="round" stroke-linejoin="round"/>
<path d="M247 194.5H255.25" stroke="#3867D6" stroke-width="2" stroke-linecap="round" stroke-linejoin="round"/>
<path d="M194.75 180.75H203" stroke="#3867D6" stroke-width="2" stroke-linecap="round" stroke-linejoin="round"/>
<path d="M194.75 194.5H203" stroke="#3867D6" stroke-width="2" stroke-linecap="round" stroke-linejoin="round"/>
<g opacity="0.2">
<path d="M70.9875 100.053L61.5 119V135.5C61.5 136.959 62.0795 138.358 63.1109 139.389C64.1424 140.421 65.5413 141 67 141H111C112.459 141 113.858 140.421 114.889 139.389C115.921 138.358 116.5 136.959 116.5 135.5V119L107.012 100.053C106.557 99.1362 105.855 98.365 104.986 97.8258C104.116 97.2865 103.113 97.0005 102.09 97H75.91C74.8868 97.0005 73.884 97.2865 73.0144 97.8258C72.1448 98.365 71.4428 99.1362 70.9875 100.053Z" fill="#3867D6" stroke="#3867D6" stroke-width="2" stroke-linecap="round" stroke-linejoin="round"/>
</g>
<g clip-path="url(#clip0)">
<path d="M120.5 123H65.5" stroke="#3867D6" stroke-width="2" stroke-linecap="round" stroke-linejoin="round"/>
<path d="M74.9875 104.053L65.5 123V139.5C65.5 140.959 66.0795 142.358 67.1109 143.389C68.1424 144.421 69.5413 145 71 145H115C116.459 145 117.858 144.421 118.889 143.389C119.921 142.358 120.5 140.959 120.5 139.5V123L111.012 104.053C110.557 103.136 109.855 102.365 108.986 101.826C108.116 101.287 107.113 101.001 106.09 101H79.91C78.8868 101.001 77.884 101.287 77.0144 101.826C76.1448 102.365 75.4428 103.136 74.9875 104.053V104.053Z" stroke="#3867D6" stroke-width="2" stroke-linecap="round" stroke-linejoin="round"/>
</g>
<path fill-rule="evenodd" clip-rule="evenodd" d="M93 189C93.669 189 94.3358 188.99 95 188.97L95 189C95 237.784 121.871 280.292 161.619 302.53C161.428 303.188 161.246 303.85 161.075 304.516C120.479 282.003 93 238.71 93 189ZM288.925 304.516C329.521 282.003 357 238.71 357 189C356.331 189 355.664 188.99 355 188.97V189C355 237.784 328.129 280.292 288.381 302.53C288.572 303.188 288.754 303.85 288.925 304.516ZM225 59C195.723 59 168.707 68.6778 146.976 85.0087C146.591 84.4635 146.199 83.9244 145.798 83.3915C167.86 66.8198 195.283 57 225 57C254.717 57 282.14 66.8198 304.202 83.3915C303.801 83.9244 303.409 84.4635 303.024 85.0087C281.293 68.6778 254.277 59 225 59Z" fill="#3867D6"/>
<g opacity="0.2">
<path d="M243.5 292H199.5C196.462 292 194 294.462 194 297.5V308.5C194 311.538 196.462 314 199.5 314H243.5C246.538 314 249 311.538 249 308.5V297.5C249 294.462 246.538 292 243.5 292Z" fill="#3867D6"/>
<path d="M243.5 325H199.5C196.462 325 194 327.462 194 330.5V341.5C194 344.538 196.462 347 199.5 347H243.5C246.538 347 249 344.538 249 341.5V330.5C249 327.462 246.538 325 243.5 325Z" fill="#3867D6"/>
</g>
<g clip-path="url(#clip1)">
<path d="M247 295.5H203C199.962 295.5 197.5 297.962 197.5 301V312C197.5 315.038 199.962 317.5 203 317.5H247C250.038 317.5 252.5 315.038 252.5 312V301C252.5 297.962 250.038 295.5 247 295.5Z" stroke="#3867D6" stroke-width="2" stroke-linecap="round" stroke-linejoin="round"/>
<path d="M247 328.5H203C199.962 328.5 197.5 330.962 197.5 334V345C197.5 348.038 199.962 350.5 203 350.5H247C250.038 350.5 252.5 348.038 252.5 345V334C252.5 330.962 250.038 328.5 247 328.5Z" stroke="#3867D6" stroke-width="2" stroke-linecap="round" stroke-linejoin="round"/>
</g>
<path opacity="0.1" fill-rule="evenodd" clip-rule="evenodd" d="M318 3C318 4.65685 316.657 6 315 6C313.343 6 312 4.65685 312 3C312 1.34315 313.343 0 315 0C316.657 0 318 1.34315 318 3ZM318 27C318 28.6569 316.657 30 315 30C313.343 30 312 28.6569 312 27C312 25.3431 313.343 24 315 24C316.657 24 318 25.3431 318 27ZM315 54C316.657 54 318 52.6569 318 51C318 49.3431 316.657 48 315 48C313.343 48 312 49.3431 312 51C312 52.6569 313.343 54 315 54ZM318 15C318 16.6569 316.657 18 315 18C313.343 18 312 16.6569 312 15C312 13.3431 313.343 12 315 12C316.657 12 318 13.3431 318 15ZM315 42C316.657 42 318 40.6569 318 39C318 37.3431 316.657 36 315 36C313.343 36 312 37.3431 312 39C312 40.6569 313.343 42 315 42ZM318 63C318 64.6569 316.657 66 315 66C313.343 66 312 64.6569 312 63C312 61.3431 313.343 60 315 60C316.657 60 318 61.3431 318 63ZM327 6C328.657 6 330 4.65685 330 3C330 1.34315 328.657 0 327 0C325.343 0 324 1.34315 324 3C324 4.65685 325.343 6 327 6ZM330 27C330 28.6569 328.657 30 327 30C325.343 30 324 28.6569 324 27C324 25.3431 325.343 24 327 24C328.657 24 330 25.3431 330 27ZM327 54C328.657 54 330 52.6569 330 51C330 49.3431 328.657 48 327 48C325.343 48 324 49.3431 324 51C324 52.6569 325.343 54 327 54ZM330 15C330 16.6569 328.657 18 327 18C325.343 18 324 16.6569 324 15C324 13.3431 325.343 12 327 12C328.657 12 330 13.3431 330 15ZM327 42C328.657 42 330 40.6569 330 39C330 37.3431 328.657 36 327 36C325.343 36 324 37.3431 324 39C324 40.6569 325.343 42 327 42ZM330 63C330 64.6569 328.657 66 327 66C325.343 66 324 64.6569 324 63C324 61.3431 325.343 60 327 60C328.657 60 330 61.3431 330 63ZM339 6C340.657 6 342 4.65685 342 3C342 1.34315 340.657 0 339 0C337.343 0 336 1.34315 336 3C336 4.65685 337.343 6 339 6ZM342 27C342 28.6569 340.657 30 339 30C337.343 30 336 28.6569 336 27C336 25.3431 337.343 24 339 24C340.657 24 342 25.3431 342 27ZM339 54C340.657 54 342 52.6569 342 51C342 49.3431 340.657 48 339 48C337.343 48 336 49.3431 336 51C336 52.6569 337.343 54 339 54ZM342 15C342 16.6569 340.657 18 339 18C337.343 18 336 16.6569 336 15C336 13.3431 337.343 12 339 12C340.657 12 342 13.3431 342 15ZM339 42C340.657 42 342 40.6569 342 39C342 37.3431 340.657 36 339 36C337.343 36 336 37.3431 336 39C336 40.6569 337.343 42 339 42ZM342 63C342 64.6569 340.657 66 339 66C337.343 66 336 64.6569 336 63C336 61.3431 337.343 60 339 60C340.657 60 342 61.3431 342 63ZM351 6C352.657 6 354 4.65685 354 3C354 1.34315 352.657 0 351 0C349.343 0 348 1.34315 348 3C348 4.65685 349.343 6 351 6ZM354 27C354 28.6569 352.657 30 351 30C349.343 30 348 28.6569 348 27C348 25.3431 349.343 24 351 24C352.657 24 354 25.3431 354 27ZM351 54C352.657 54 354 52.6569 354 51C354 49.3431 352.657 48 351 48C349.343 48 348 49.3431 348 51C348 52.6569 349.343 54 351 54ZM354 15C354 16.6569 352.657 18 351 18C349.343 18 348 16.6569 348 15C348 13.3431 349.343 12 351 12C352.657 12 354 13.3431 354 15ZM351 42C352.657 42 354 40.6569 354 39C354 37.3431 352.657 36 351 36C349.343 36 348 37.3431 348 39C348 40.6569 349.343 42 351 42ZM354 63C354 64.6569 352.657 66 351 66C349.343 66 348 64.6569 348 63C348 61.3431 349.343 60 351 60C352.657 60 354 61.3431 354 63ZM363 6C364.657 6 366 4.65685 366 3C366 1.34315 364.657 0 363 0C361.343 0 360 1.34315 360 3C360 4.65685 361.343 6 363 6ZM366 27C366 28.6569 364.657 30 363 30C361.343 30 360 28.6569 360 27C360 25.3431 361.343 24 363 24C364.657 24 366 25.3431 366 27ZM363 54C364.657 54 366 52.6569 366 51C366 49.3431 364.657 48 363 48C361.343 48 360 49.3431 360 51C360 52.6569 361.343 54 363 54ZM366 15C366 16.6569 364.657 18 363 18C361.343 18 360 16.6569 360 15C360 13.3431 361.343 12 363 12C364.657 12 366 13.3431 366 15ZM363 42C364.657 42 366 40.6569 366 39C366 37.3431 364.657 36 363 36C361.343 36 360 37.3431 360 39C360 40.6569 361.343 42 363 42ZM366 63C366 64.6569 364.657 66 363 66C361.343 66 360 64.6569 360 63C360 61.3431 361.343 60 363 60C364.657 60 366 61.3431 366 63ZM375 6C376.657 6 378 4.65685 378 3C378 1.34315 376.657 0 375 0C373.343 0 372 1.34315 372 3C372 4.65685 373.343 6 375 6ZM378 27C378 28.6569 376.657 30 375 30C373.343 30 372 28.6569 372 27C372 25.3431 373.343 24 375 24C376.657 24 378 25.3431 378 27ZM375 54C376.657 54 378 52.6569 378 51C378 49.3431 376.657 48 375 48C373.343 48 372 49.3431 372 51C372 52.6569 373.343 54 375 54ZM378 15C378 16.6569 376.657 18 375 18C373.343 18 372 16.6569 372 15C372 13.3431 373.343 12 375 12C376.657 12 378 13.3431 378 15ZM375 42C376.657 42 378 40.6569 378 39C378 37.3431 376.657 36 375 36C373.343 36 372 37.3431 372 39C372 40.6569 373.343 42 375 42ZM378 63C378 64.6569 376.657 66 375 66C373.343 66 372 64.6569 372 63C372 61.3431 373.343 60 375 60C376.657 60 378 61.3431 378 63ZM315 78C316.657 78 318 76.6569 318 75C318 73.3431 316.657 72 315 72C313.343 72 312 73.3431 312 75C312 76.6569 313.343 78 315 78ZM318 99C318 100.657 316.657 102 315 102C313.343 102 312 100.657 312 99C312 97.3431 313.343 96 315 96C316.657 96 318 97.3431 318 99ZM315 126C316.657 126 318 124.657 318 123C318 121.343 316.657 120 315 120C313.343 120 312 121.343 312 123C312 124.657 313.343 126 315 126ZM318 87C318 88.6569 316.657 90 315 90C313.343 90 312 88.6569 312 87C312 85.3431 313.343 84 315 84C316.657 84 318 85.3431 318 87ZM315 114C316.657 114 318 112.657 318 111C318 109.343 316.657 108 315 108C313.343 108 312 109.343 312 111C312 112.657 313.343 114 315 114ZM318 135C318 136.657 316.657 138 315 138C313.343 138 312 136.657 312 135C312 133.343 313.343 132 315 132C316.657 132 318 133.343 318 135ZM327 78C328.657 78 330 76.6569 330 75C330 73.3431 328.657 72 327 72C325.343 72 324 73.3431 324 75C324 76.6569 325.343 78 327 78ZM328.25 101.728C327.869 101.903 327.446 102 327 102C325.343 102 324 100.657 324 99C324 97.3431 325.343 96 327 96C327.992 96 328.871 96.4812 329.417 97.2229C328.216 98.634 328.25 99.75 328.25 99.75V101.728ZM328.25 108.272C327.869 108.097 327.446 108 327 108C325.343 108 324 109.343 324 111C324 112.657 325.343 114 327 114C327.446 114 327.869 113.903 328.25 113.728V108.272ZM328.25 120.272C327.869 120.097 327.446 120 327 120C325.343 120 324 121.343 324 123C324 124.657 325.343 126 327 126C327.446 126 327.869 125.903 328.25 125.728V120.272ZM328.25 132.272C327.869 132.097 327.446 132 327 132C325.343 132 324 133.343 324 135C324 136.657 325.343 138 327 138C327.446 138 327.869 137.903 328.25 137.728V132.272ZM377.31 98.284C377.545 98.4038 377.768 98.5246 377.979 98.6459C377.815 97.2515 376.695 96.1496 375.292 96.014C376.364 96.8354 376.969 97.636 377.31 98.284ZM330 87C330 88.6569 328.657 90 327 90C325.343 90 324 88.6569 324 87C324 85.3431 325.343 84 327 84C328.657 84 330 85.3431 330 87ZM339 78C340.657 78 342 76.6569 342 75C342 73.3431 340.657 72 339 72C337.343 72 336 73.3431 336 75C336 76.6569 337.343 78 339 78ZM342 87C342 88.6569 340.657 90 339 90C337.343 90 336 88.6569 336 87C336 85.3431 337.343 84 339 84C340.657 84 342 85.3431 342 87ZM351 78C352.657 78 354 76.6569 354 75C354 73.3431 352.657 72 351 72C349.343 72 348 73.3431 348 75C348 76.6569 349.343 78 351 78ZM354 87C354 88.6569 352.657 90 351 90C349.343 90 348 88.6569 348 87C348 85.3431 349.343 84 351 84C352.657 84 354 85.3431 354 87ZM363 78C364.657 78 366 76.6569 366 75C366 73.3431 364.657 72 363 72C361.343 72 360 73.3431 360 75C360 76.6569 361.343 78 363 78ZM366 87C366 88.6569 364.657 90 363 90C361.343 90 360 88.6569 360 87C360 85.3431 361.343 84 363 84C364.657 84 366 85.3431 366 87ZM375 78C376.657 78 378 76.6569 378 75C378 73.3431 376.657 72 375 72C373.343 72 372 73.3431 372 75C372 76.6569 373.343 78 375 78ZM378 87C378 88.6569 376.657 90 375 90C373.343 90 372 88.6569 372 87C372 85.3431 373.343 84 375 84C376.657 84 378 85.3431 378 87ZM387 6C388.657 6 390 4.65685 390 3C390 1.34315 388.657 0 387 0C385.343 0 384 1.34315 384 3C384 4.65685 385.343 6 387 6ZM390 27C390 28.6569 388.657 30 387 30C385.343 30 384 28.6569 384 27C384 25.3431 385.343 24 387 24C388.657 24 390 25.3431 390 27ZM387 54C388.657 54 390 52.6569 390 51C390 49.3431 388.657 48 387 48C385.343 48 384 49.3431 384 51C384 52.6569 385.343 54 387 54ZM390 15C390 16.6569 388.657 18 387 18C385.343 18 384 16.6569 384 15C384 13.3431 385.343 12 387 12C388.657 12 390 13.3431 390 15ZM387 42C388.657 42 390 40.6569 390 39C390 37.3431 388.657 36 387 36C385.343 36 384 37.3431 384 39C384 40.6569 385.343 42 387 42ZM390 63C390 64.6569 388.657 66 387 66C385.343 66 384 64.6569 384 63C384 61.3431 385.343 60 387 60C388.657 60 390 61.3431 390 63ZM399 6C400.657 6 402 4.65685 402 3C402 1.34315 400.657 0 399 0C397.343 0 396 1.34315 396 3C396 4.65685 397.343 6 399 6ZM402 27C402 28.6569 400.657 30 399 30C397.343 30 396 28.6569 396 27C396 25.3431 397.343 24 399 24C400.657 24 402 25.3431 402 27ZM399 54C400.657 54 402 52.6569 402 51C402 49.3431 400.657 48 399 48C397.343 48 396 49.3431 396 51C396 52.6569 397.343 54 399 54ZM402 15C402 16.6569 400.657 18 399 18C397.343 18 396 16.6569 396 15C396 13.3431 397.343 12 399 12C400.657 12 402 13.3431 402 15ZM399 42C400.657 42 402 40.6569 402 39C402 37.3431 400.657 36 399 36C397.343 36 396 37.3431 396 39C396 40.6569 397.343 42 399 42ZM402 63C402 64.6569 400.657 66 399 66C397.343 66 396 64.6569 396 63C396 61.3431 397.343 60 399 60C400.657 60 402 61.3431 402 63ZM411 6C412.657 6 414 4.65685 414 3C414 1.34315 412.657 0 411 0C409.343 0 408 1.34315 408 3C408 4.65685 409.343 6 411 6ZM414 27C414 28.6569 412.657 30 411 30C409.343 30 408 28.6569 408 27C408 25.3431 409.343 24 411 24C412.657 24 414 25.3431 414 27ZM411 54C412.657 54 414 52.6569 414 51C414 49.3431 412.657 48 411 48C409.343 48 408 49.3431 408 51C408 52.6569 409.343 54 411 54ZM414 15C414 16.6569 412.657 18 411 18C409.343 18 408 16.6569 408 15C408 13.3431 409.343 12 411 12C412.657 12 414 13.3431 414 15ZM411 42C412.657 42 414 40.6569 414 39C414 37.3431 412.657 36 411 36C409.343 36 408 37.3431 408 39C408 40.6569 409.343 42 411 42ZM414 63C414 64.6569 412.657 66 411 66C409.343 66 408 64.6569 408 63C408 61.3431 409.343 60 411 60C412.657 60 414 61.3431 414 63ZM423 6C424.657 6 426 4.65685 426 3C426 1.34315 424.657 0 423 0C421.343 0 420 1.34315 420 3C420 4.65685 421.343 6 423 6ZM426 27C426 28.6569 424.657 30 423 30C421.343 30 420 28.6569 420 27C420 25.3431 421.343 24 423 24C424.657 24 426 25.3431 426 27ZM423 54C424.657 54 426 52.6569 426 51C426 49.3431 424.657 48 423 48C421.343 48 420 49.3431 420 51C420 52.6569 421.343 54 423 54ZM426 15C426 16.6569 424.657 18 423 18C421.343 18 420 16.6569 420 15C420 13.3431 421.343 12 423 12C424.657 12 426 13.3431 426 15ZM423 42C424.657 42 426 40.6569 426 39C426 37.3431 424.657 36 423 36C421.343 36 420 37.3431 420 39C420 40.6569 421.343 42 423 42ZM426 63C426 64.6569 424.657 66 423 66C421.343 66 420 64.6569 420 63C420 61.3431 421.343 60 423 60C424.657 60 426 61.3431 426 63ZM435 6C436.657 6 438 4.65685 438 3C438 1.34315 436.657 0 435 0C433.343 0 432 1.34315 432 3C432 4.65685 433.343 6 435 6ZM438 27C438 28.6569 436.657 30 435 30C433.343 30 432 28.6569 432 27C432 25.3431 433.343 24 435 24C436.657 24 438 25.3431 438 27ZM435 54C436.657 54 438 52.6569 438 51C438 49.3431 436.657 48 435 48C433.343 48 432 49.3431 432 51C432 52.6569 433.343 54 435 54ZM438 15C438 16.6569 436.657 18 435 18C433.343 18 432 16.6569 432 15C432 13.3431 433.343 12 435 12C436.657 12 438 13.3431 438 15ZM435 42C436.657 42 438 40.6569 438 39C438 37.3431 436.657 36 435 36C433.343 36 432 37.3431 432 39C432 40.6569 433.343 42 435 42ZM438 63C438 64.6569 436.657 66 435 66C433.343 66 432 64.6569 432 63C432 61.3431 433.343 60 435 60C436.657 60 438 61.3431 438 63ZM447 6C448.657 6 450 4.65685 450 3C450 1.34315 448.657 0 447 0C445.343 0 444 1.34315 444 3C444 4.65685 445.343 6 447 6ZM450 27C450 28.6569 448.657 30 447 30C445.343 30 444 28.6569 444 27C444 25.3431 445.343 24 447 24C448.657 24 450 25.3431 450 27ZM447 54C448.657 54 450 52.6569 450 51C450 49.3431 448.657 48 447 48C445.343 48 444 49.3431 444 51C444 52.6569 445.343 54 447 54ZM450 15C450 16.6569 448.657 18 447 18C445.343 18 444 16.6569 444 15C444 13.3431 445.343 12 447 12C448.657 12 450 13.3431 450 15ZM447 42C448.657 42 450 40.6569 450 39C450 37.3431 448.657 36 447 36C445.343 36 444 37.3431 444 39C444 40.6569 445.343 42 447 42ZM450 63C450 64.6569 448.657 66 447 66C445.343 66 444 64.6569 444 63C444 61.3431 445.343 60 447 60C448.657 60 450 61.3431 450 63ZM387 78C388.657 78 390 76.6569 390 75C390 73.3431 388.657 72 387 72C385.343 72 384 73.3431 384 75C384 76.6569 385.343 78 387 78ZM390 99C390 100.657 388.657 102 387 102C385.343 102 384 100.657 384 99C384 97.3431 385.343 96 387 96C388.657 96 390 97.3431 390 99ZM387 126C388.657 126 390 124.657 390 123C390 121.343 388.657 120 387 120C385.343 120 384 121.343 384 123C384 124.657 385.343 126 387 126ZM390 87C390 88.6569 388.657 90 387 90C385.343 90 384 88.6569 384 87C384 85.3431 385.343 84 387 84C388.657 84 390 85.3431 390 87ZM387 114C388.657 114 390 112.657 390 111C390 109.343 388.657 108 387 108C385.343 108 384 109.343 384 111C384 112.657 385.343 114 387 114ZM390 135C390 136.657 388.657 138 387 138C385.343 138 384 136.657 384 135C384 133.343 385.343 132 387 132C388.657 132 390 133.343 390 135ZM399 78C400.657 78 402 76.6569 402 75C402 73.3431 400.657 72 399 72C397.343 72 396 73.3431 396 75C396 76.6569 397.343 78 399 78ZM402 99C402 100.657 400.657 102 399 102C397.343 102 396 100.657 396 99C396 97.3431 397.343 96 399 96C400.657 96 402 97.3431 402 99ZM399 126C400.657 126 402 124.657 402 123C402 121.343 400.657 120 399 120C397.343 120 396 121.343 396 123C396 124.657 397.343 126 399 126ZM402 87C402 88.6569 400.657 90 399 90C397.343 90 396 88.6569 396 87C396 85.3431 397.343 84 399 84C400.657 84 402 85.3431 402 87ZM399 114C400.657 114 402 112.657 402 111C402 109.343 400.657 108 399 108C397.343 108 396 109.343 396 111C396 112.657 397.343 114 399 114ZM402 135C402 136.657 400.657 138 399 138C397.343 138 396 136.657 396 135C396 133.343 397.343 132 399 132C400.657 132 402 133.343 402 135ZM411 78C412.657 78 414 76.6569 414 75C414 73.3431 412.657 72 411 72C409.343 72 408 73.3431 408 75C408 76.6569 409.343 78 411 78ZM414 99C414 100.657 412.657 102 411 102C409.343 102 408 100.657 408 99C408 97.3431 409.343 96 411 96C412.657 96 414 97.3431 414 99ZM411 126C412.657 126 414 124.657 414 123C414 121.343 412.657 120 411 120C409.343 120 408 121.343 408 123C408 124.657 409.343 126 411 126ZM414 87C414 88.6569 412.657 90 411 90C409.343 90 408 88.6569 408 87C408 85.3431 409.343 84 411 84C412.657 84 414 85.3431 414 87ZM411 114C412.657 114 414 112.657 414 111C414 109.343 412.657 108 411 108C409.343 108 408 109.343 408 111C408 112.657 409.343 114 411 114ZM414 135C414 136.657 412.657 138 411 138C409.343 138 408 136.657 408 135C408 133.343 409.343 132 411 132C412.657 132 414 133.343 414 135ZM423 78C424.657 78 426 76.6569 426 75C426 73.3431 424.657 72 423 72C421.343 72 420 73.3431 420 75C420 76.6569 421.343 78 423 78ZM426 99C426 100.657 424.657 102 423 102C421.343 102 420 100.657 420 99C420 97.3431 421.343 96 423 96C424.657 96 426 97.3431 426 99ZM423 126C424.657 126 426 124.657 426 123C426 121.343 424.657 120 423 120C421.343 120 420 121.343 420 123C420 124.657 421.343 126 423 126ZM426 87C426 88.6569 424.657 90 423 90C421.343 90 420 88.6569 420 87C420 85.3431 421.343 84 423 84C424.657 84 426 85.3431 426 87ZM423 114C424.657 114 426 112.657 426 111C426 109.343 424.657 108 423 108C421.343 108 420 109.343 420 111C420 112.657 421.343 114 423 114ZM426 135C426 136.657 424.657 138 423 138C421.343 138 420 136.657 420 135C420 133.343 421.343 132 423 132C424.657 132 426 133.343 426 135ZM435 78C436.657 78 438 76.6569 438 75C438 73.3431 436.657 72 435 72C433.343 72 432 73.3431 432 75C432 76.6569 433.343 78 435 78ZM438 99C438 100.657 436.657 102 435 102C433.343 102 432 100.657 432 99C432 97.3431 433.343 96 435 96C436.657 96 438 97.3431 438 99ZM435 126C436.657 126 438 124.657 438 123C438 121.343 436.657 120 435 120C433.343 120 432 121.343 432 123C432 124.657 433.343 126 435 126ZM438 87C438 88.6569 436.657 90 435 90C433.343 90 432 88.6569 432 87C432 85.3431 433.343 84 435 84C436.657 84 438 85.3431 438 87ZM435 114C436.657 114 438 112.657 438 111C438 109.343 436.657 108 435 108C433.343 108 432 109.343 432 111C432 112.657 433.343 114 435 114ZM438 135C438 136.657 436.657 138 435 138C433.343 138 432 136.657 432 135C432 133.343 433.343 132 435 132C436.657 132 438 133.343 438 135ZM447 78C448.657 78 450 76.6569 450 75C450 73.3431 448.657 72 447 72C445.343 72 444 73.3431 444 75C444 76.6569 445.343 78 447 78ZM450 99C450 100.657 448.657 102 447 102C445.343 102 444 100.657 444 99C444 97.3431 445.343 96 447 96C448.657 96 450 97.3431 450 99ZM447 126C448.657 126 450 124.657 450 123C450 121.343 448.657 120 447 120C445.343 120 444 121.343 444 123C444 124.657 445.343 126 447 126ZM450 87C450 88.6569 448.657 90 447 90C445.343 90 444 88.6569 444 87C444 85.3431 445.343 84 447 84C448.657 84 450 85.3431 450 87ZM447 114C448.657 114 450 112.657 450 111C450 109.343 448.657 108 447 108C445.343 108 444 109.343 444 111C444 112.657 445.343 114 447 114ZM450 135C450 136.657 448.657 138 447 138C445.343 138 444 136.657 444 135C444 133.343 445.343 132 447 132C448.657 132 450 133.343 450 135Z" fill="#3867D6"/>
<path opacity="0.1" d="M441 397C442.105 397 443 397.895 443 399C443 401.209 444.791 403 447 403C448.105 403 449 403.895 449 405C449 406.105 448.105 407 447 407C444.791 407 443 408.791 443 411C443 412.105 442.105 413 441 413C439.895 413 439 412.105 439 411C439 408.791 437.209 407 435 407C433.895 407 433 406.105 433 405C433 403.895 433.895 403 435 403C437.209 403 439 401.209 439 399C439 397.895 439.895 397 441 397Z" stroke="#3867D6" stroke-width="2"/>
<path opacity="0.1" d="M48 208C49.1046 208 50 208.895 50 210C50 212.209 51.7909 214 54 214C55.1046 214 56 214.895 56 216C56 217.105 55.1046 218 54 218C51.7909 218 50 219.791 50 222C50 223.105 49.1046 224 48 224C46.8954 224 46 223.105 46 222C46 219.791 44.2091 218 42 218C40.8954 218 40 217.105 40 216C40 214.895 40.8954 214 42 214C44.2091 214 46 212.209 46 210C46 208.895 46.8954 208 48 208Z" stroke="#3867D6" stroke-width="2"/>
<circle opacity="0.1" cx="391" cy="285" r="8" stroke="#3867D6" stroke-width="2"/>
<circle opacity="0.1" cx="48" cy="24" r="8" stroke="#3867D6" stroke-width="2"/>
<defs>
<clipPath id="clip0">
<path d="M60 90H126V156H60V90Z" fill="white"/>
</clipPath>
<clipPath id="clip1">
<path d="M192 290H258V356H192V290Z" fill="white"/>
</clipPath>
</defs>
</svg>
