<svg width="60" height="60" viewBox="0 0 60 60" fill="none" xmlns="http://www.w3.org/2000/svg">
<circle cx="30" cy="30" r="30" fill="#3867D6"/>
<path d="M36.75 28.5C36.75 33.75 30 38.25 30 38.25C30 38.25 23.25 33.75 23.25 28.5C23.25 26.7098 23.9612 24.9929 25.227 23.727C26.4929 22.4612 28.2098 21.75 30 21.75C31.7902 21.75 33.5071 22.4612 34.773 23.727C36.0388 24.9929 36.75 26.7098 36.75 28.5Z" stroke="white" stroke-width="1.5" stroke-linecap="round" stroke-linejoin="round"/>
<path d="M30 30.75C31.2426 30.75 32.25 29.7426 32.25 28.5C32.25 27.2574 31.2426 26.25 30 26.25C28.7574 26.25 27.75 27.2574 27.75 28.5C27.75 29.7426 28.7574 30.75 30 30.75Z" stroke="white" stroke-width="1.5" stroke-linecap="round" stroke-linejoin="round"/>
</svg>
